<?xml version="1.0" encoding="UTF-8" standalone="no"?>
<!-- Created with Inkscape (http://www.inkscape.org/) -->

<svg
   version="1.1"
   id="svg1"
   width="1024"
   height="1024"
   viewBox="0 0 1024 1024"
   sodipodi:docname="murmli_logo_inkscape.svg"
   inkscape:version="1.4.2 (f4327f4, 2025-05-13)"
   inkscape:export-filename="..\..\Downloads\murmli_logo\favicon.png"
   inkscape:export-xdpi="1.5"
   inkscape:export-ydpi="1.5"
   xmlns:inkscape="http://www.inkscape.org/namespaces/inkscape"
   xmlns:sodipodi="http://sodipodi.sourceforge.net/DTD/sodipodi-0.dtd"
   xmlns="http://www.w3.org/2000/svg"
   xmlns:svg="http://www.w3.org/2000/svg">
  <defs
     id="defs1">
    <linearGradient
       id="swatch9"
       inkscape:swatch="solid">
      <stop
         style="stop-color:#ffffff;stop-opacity:1;"
         offset="0"
         id="stop9" />
    </linearGradient>
    <inkscape:path-effect
       effect="fillet_chamfer"
       id="path-effect4"
       is_visible="true"
       lpeversion="1"
       nodesatellites_param="F,0,0,1,0,100,0,1 @ F,0,0,1,0,100,0,1 @ F,0,0,1,0,100,0,1 @ F,0,0,1,0,100,0,1"
       radius="100"
       unit="px"
       method="auto"
       mode="F"
       chamfer_steps="1"
       flexible="false"
       use_knot_distance="true"
       apply_no_radius="true"
       apply_with_radius="true"
       only_selected="false"
       hide_knots="false" />
    <inkscape:path-effect
       effect="fillet_chamfer"
       id="path-effect3"
       is_visible="true"
       lpeversion="1"
       nodesatellites_param="F,0,0,1,0,75,0,1 @ F,0,0,1,0,75,0,1 @ F,0,0,1,0,75,0,1 @ F,0,0,1,0,75,0,1"
       radius="75"
       unit="px"
       method="auto"
       mode="F"
       chamfer_steps="1"
       flexible="false"
       use_knot_distance="true"
       apply_no_radius="true"
       apply_with_radius="true"
       only_selected="false"
       hide_knots="false" />
    <inkscape:path-effect
       effect="bspline"
       id="path-effect2"
       is_visible="true"
       lpeversion="1.3"
       weight="33.333333"
       steps="2"
       helper_size="0"
       apply_no_weight="true"
       apply_with_weight="true"
       only_selected="false"
       uniform="false" />
  </defs>
  <sodipodi:namedview
     id="namedview1"
     pagecolor="#ffffff"
     bordercolor="#000000"
     borderopacity="0.25"
     inkscape:showpageshadow="2"
     inkscape:pageopacity="0.0"
     inkscape:pagecheckerboard="0"
     inkscape:deskcolor="#d1d1d1"
     inkscape:zoom="0.78513715"
     inkscape:cx="487.81286"
     inkscape:cy="438.77684"
     inkscape:window-width="2560"
     inkscape:window-height="1377"
     inkscape:window-x="1912"
     inkscape:window-y="-8"
     inkscape:window-maximized="1"
     inkscape:current-layer="g1"
     inkscape:export-bgcolor="#fffffffc" />
  <g
     inkscape:groupmode="layer"
     inkscape:label="Image"
     id="g1">
    <path
       style="display:inline;fill:#f57f17;fill-opacity:1"
       d="M 0,512 V 0 h 512 512 v 512 512 H 512 0 Z m 671.10902,419.93004 c 6.66122,-4.27449 19.23696,-17.71786 27.56349,-29.46515 6.5277,-9.20945 7.92395,-10.5599 16.97021,-16.41351 6.61946,-4.28329 13.19822,-9.77363 20.02851,-16.71489 C 741.26541,863.65142 746.04915,859 746.30176,859 c 0.25262,0 1.89484,4.5 3.64939,10 1.75454,5.5 3.72081,9.99541 4.36947,9.98981 2.15042,-0.0186 12.59203,-15.35577 16.25775,-23.88025 6.6328,-15.4243 10.4131,-35.00522 10.41881,-53.96655 0.003,-10.783 -0.35539,-10.6264 9.11786,-3.98129 3.25081,2.28031 6.18863,3.86795 6.52849,3.52809 1.73356,-1.73356 -10.78269,-24.93995 -20.53366,-38.07149 -2.40214,-3.23492 -7.67751,-9.60198 -11.72307,-14.14901 -5.34201,-6.00419 -6.95642,-8.42048 -5.8975,-8.82683 0.80192,-0.30773 5.06799,0.35337 9.48014,1.46911 9.57691,2.4218 11.70161,2.23318 14.30721,-1.27014 6.74865,-9.0738 0.12989,-52.70464 -11.96017,-78.84145 l -3.46927,-7.5 -3.37498,7 c -7.48731,15.5293 -18.34621,23.77583 -45.16631,34.30045 -32.01277,12.56232 -57.12224,21.48401 -58.72943,20.86728 -2.46706,-0.9467 -1.85192,-4.33752 1.17351,-6.46873 1.5125,-1.06546 9.95,-6.32405 18.75,-11.68575 49.12573,-29.93153 71.46669,-51.02626 82.99808,-78.36823 3.09015,-7.32704 6.59422,-20.18225 8.02005,-29.42281 0.32061,-2.07778 0.9395,-3.55741 1.37531,-3.28807 0.43581,0.26935 2.91136,4.13659 5.50122,8.59388 2.58986,4.45728 5.24805,7.92726 5.90709,7.71105 1.91406,-0.62792 1.97922,-6.37897 0.19329,-17.05961 -4.89358,-29.26569 -21.37687,-58.2335 -44.49504,-78.19579 -3.575,-3.08697 -6.5,-6.13206 -6.5,-6.76687 0,-4.09423 26.01681,-7.56939 32.30891,-4.31562 3.76672,1.94785 4.09437,1.00492 1.66836,-4.80133 -4.09334,-9.79675 -14.72105,-16.22824 -29.72727,-17.98984 -5.40053,-0.63397 -8.75,-1.47277 -8.75,-2.19123 0,-0.64023 1.9844,-2.99322 4.40979,-5.22886 6.62648,-6.10808 18.5623,-11.63651 28.05462,-12.99432 l 4.90784,-0.70204 -3.17885,-3.6205 c -4.35634,-4.9616 -11.80898,-7.96729 -21.38189,-8.62343 l -7.81928,-0.53595 8.32115,-8.22803 c 9.27732,-9.1735 14.0469,-15.82528 19.34143,-26.97406 12.55835,-26.44432 -5.12938,-50.95767 -32.87566,-45.56226 -8.20901,1.59629 -17.95188,6.2788 -21.27055,10.22282 -6.50228,7.72752 -14.37691,27.92193 -16.0219,41.088 -0.39443,3.15692 -0.96437,5.73985 -1.26652,5.73985 -0.30216,0 -4.86281,-2.8857 -10.13478,-6.41266 C 651.14838,390.8974 622.03229,379.02416 586,371.6281 c -28.92074,-5.93634 -53.90361,-8.17989 -81.5,-7.319 -63.73103,1.98814 -123.25849,19.24011 -161.77119,46.88378 -7.38566,5.30127 -7.20811,5.36717 -8.19573,-3.04185 -1.4027,-11.94319 -9.28708,-31.38444 -15.68145,-38.66723 -9.15161,-10.42311 -30.18342,-14.40327 -42.6711,-8.07528 -12.5725,6.37097 -18.89041,22.64049 -14.20949,36.59148 4.30082,12.81813 15.54096,29.13923 25.48143,37 2.43429,1.925 4.45333,3.8375 4.48676,4.25 0.0334,0.4125 -2.36683,0.75 -5.33389,0.75 -7.31408,0 -17.86238,3.40877 -22.12226,7.149 -4.33438,3.80564 -4.51123,5.851 -0.50591,5.851 3.56403,0 14.73964,4.08144 21.01233,7.6739 5.06838,2.90273 12.0105,9.16077 12.0105,10.82697 0,0.62481 -3.75712,1.57437 -8.75,2.21143 -17.10085,2.182 -27.88197,9.72158 -30.78839,21.5313 l -0.67521,2.7436 3.8568,-1.61352 c 5.47217,-2.28931 21.05576,-1.49396 27.6068,1.409 2.6125,1.15767 4.75,2.37379 4.75,2.70248 0,0.32869 -4.87985,5.41649 -10.84412,11.30623 -12.22371,12.07096 -18.34983,19.77158 -25.12535,31.58293 -9.63367,16.79377 -14.94272,33.60037 -15.79635,50.00567 -0.63487,12.20109 0.25339,12.33448 7.05668,1.05969 2.63497,-4.36682 5.15861,-8.06839 5.60808,-8.22571 0.44948,-0.15731 1.10275,2.14332 1.45172,5.11252 1.64349,13.98351 10.32123,35.85423 19.11644,48.17961 12.81165,17.95392 35.48102,36.00739 76.5329,60.94939 7.975,4.8454 15.03159,9.46886 15.68132,10.27436 1.67103,2.07167 0.52323,4.27015 -2.22939,4.27015 -3.83345,0 -61.03925,-21.53076 -73.45193,-27.64537 -14.44767,-7.11707 -22.85695,-14.92264 -28.10235,-26.08483 -1.86871,-3.9766 -3.67093,-7.2391 -4.00494,-7.25 -1.02953,-0.0336 -9.5954,21.0488 -11.77478,28.9802 -7.0257,25.56843 -8.6779,52.40879 -3.57333,58.04928 2.21775,2.45059 4.21304,2.4424 13.98728,-0.0574 4.91015,-1.25581 8.2046,-1.65537 8.79346,-1.06651 0.58885,0.58885 -1.87717,4.15716 -6.58225,9.52441 -9.8541,11.24091 -18.99659,24.278 -25.47245,36.3234 C 228.68691,796.15916 226.64535,801 227.84891,801 c 0.40968,0 3.828,-2.025 7.59625,-4.5 3.76826,-2.475 7.16588,-4.5 7.55027,-4.5 0.38439,0 0.98788,6.4125 1.3411,14.25 1.33036,29.51987 9.70146,54.59832 23.56172,70.58712 l 2.89286,3.33712 1.9553,-5.33712 c 1.07541,-2.93542 2.78631,-7.69962 3.80199,-10.58712 1.01568,-2.8875 2.32029,-5.24234 2.89914,-5.23298 0.57885,0.009 3.47363,2.88587 6.43283,6.39225 6.72383,7.96708 16.98204,16.72222 25.82169,22.03818 6.0322,3.62763 7.60757,5.2927 14.25386,15.06547 12.451,18.30805 26.83085,31.38759 37.43373,34.04874 3.28866,0.8254 3.39656,-0.81913 0.63685,-9.70632 -1.92716,-6.20611 -5.11562,-11.52242 -11.86053,-19.77571 -2.78353,-3.40602 -3.0312,-4.07802 -1.5,-4.06986 5.90139,0.0314 20.2998,9.86619 33.93224,23.17724 8.27347,8.07842 9.22527,8.73058 10.5,7.19442 0.8864,-1.06819 1.37612,-3.93668 1.33198,-7.8019 -0.0829,-7.25687 -3.36514,-15.2181 -9.61284,-23.31628 -2.2549,-2.92277 -3.82376,-5.59018 -3.48636,-5.92758 2.26372,-2.26371 26.11622,18.1156 32.66901,27.91204 1.375,2.05563 2.95,3.59527 3.5,3.42144 0.55,-0.17384 2.12338,-2.30801 3.49641,-4.74261 3.6486,-6.46956 3.56124,-17.16939 -0.20581,-25.20869 -4.11576,-8.7835 -8.95541,-14.03123 -16.68701,-18.09407 -3.7564,-1.97393 -7.44067,-4.32501 -8.18728,-5.22462 -1.17918,-1.42082 -0.98142,-1.93551 1.50569,-3.91867 l 2.86317,-2.28301 -2.21411,-3.5825 c -3.21901,-5.20846 -11.78465,-12.47697 -21.2779,-18.05569 C 367.05436,839.66096 358,833.128 358,831.55646 358,830.05245 360.14007,829 363.19836,829 c 1.69809,0 1.93583,-0.45505 1.43675,-2.75 -3.18431,-14.64244 -3.83617,-21.53727 -2.74343,-29.01739 1.42257,-9.73786 5.8032,-18.88521 12.24429,-25.56772 6.57727,-6.82381 7.4084,-5.84094 5.80857,6.86913 -2.18647,17.37083 0.1232,36.88866 5.63302,47.60165 0.74555,1.44961 3.7331,3.97866 6.639,5.6201 12.08059,6.82392 23.76449,18.7415 29.14302,29.7259 1.76516,3.60492 3.7511,6.04132 5.77922,7.0901 8.36179,4.32406 16.07098,14.6343 17.46615,23.35916 0.49009,3.06489 1.18877,4.21618 2.77503,4.5727 1.16601,0.26207 18.32002,0.86296 38.12002,1.3353 28.8122,0.68734 60.31045,0.42738 91.25,-0.75308 1.64098,-0.0626 2.25021,-0.69487 2.25079,-2.33585 0.002,-6.80008 9.72138,-19.96937 17.8333,-24.16421 2.11571,-1.09407 3.98754,-3.5168 6.05328,-7.83481 5.18593,-10.84016 15.94608,-21.80557 28.73884,-29.28706 5.88478,-3.44155 6.97091,-4.56412 9.12885,-9.43512 4.37573,-9.87709 5.51719,-17.93083 4.82293,-34.0288 -0.34394,-7.975 -0.88892,-16.1875 -1.21107,-18.25 -0.83621,-5.35364 1.82134,-4.99724 7.45665,1 7.39911,7.87432 12.17643,20.33331 12.17643,31.7555 0,4.22628 -2.44232,19.87765 -3.55379,22.77408 -0.42118,1.09759 0.2617,1.71699 2.41414,2.18975 1.6508,0.36257 3.50046,1.2605 4.11036,1.99538 1.47295,1.7748 -4.04572,6.18708 -18.10949,14.47887 -12.20484,7.19579 -19.48444,12.87861 -23.79286,18.57391 -3.6876,4.87463 -3.79258,6.25667 -0.56836,7.48251 4.13174,1.57088 2.89781,3.49892 -5.28045,8.25081 -13.07555,7.59742 -20.21016,17.903 -21.03311,30.38129 -0.3355,5.08711 0.0635,7.17466 2.34114,12.25 1.51005,3.36484 3.07289,6.1179 3.47298,6.1179 0.40009,0 1.98572,-1.8157 3.52362,-4.0349 6.3836,-9.21153 30.9651,-29.80915 33.06665,-27.7076 0.29441,0.29441 -1.30316,2.94441 -3.55016,5.88889 -8.41442,11.02631 -11.9685,22.81264 -9.11074,30.21385 l 1.10439,2.86024 10.27056,-9.89232 c 5.64881,-5.44078 13.54654,-12.07019 17.55052,-14.73203 6.81674,-4.53176 16.87385,-9.20021 17.80779,-8.26627 0.22865,0.22865 -1.86328,3.06047 -4.64874,6.29293 -2.78545,3.23247 -6.40206,8.57721 -8.03691,11.87721 -2.79077,5.63328 -5.2647,14.8795 -4.25211,15.89209 0.80331,0.80331 8.54098,-2.35455 13.38359,-5.46205 z M 486.51557,721.34051 c -3.84143,-0.82304 -10.42851,-2.82462 -14.63794,-4.44795 -7.7015,-2.97001 -35.42861,-18.88193 -40.49237,-23.2376 C 427.83075,690.59751 428.6844,688 433.2437,688 c 4.34972,0 26.00898,5.31704 31.82323,7.81214 4.14104,1.77707 6.20382,1.91069 22.11993,1.4328 9.65416,-0.28988 18.67957,-0.24429 20.05649,0.10129 2.32029,0.58236 3.10675,1.8057 5.24186,8.15377 0.5642,1.67748 0.89596,1.3571 2.05729,-1.98677 2.3175,-6.67285 2.7147,-6.77989 23.08541,-6.22141 16.52104,0.45294 18.51546,0.32243 22.5,-1.47237 5.438,-2.44949 27.55847,-7.81945 32.21067,-7.81945 4.83001,0 5.44676,2.39545 1.53632,5.96708 -4.07239,3.71956 -26.42493,17.0311 -36.12042,21.51069 -7.64388,3.53169 -21.89225,7.50212 -26.9693,7.51522 -1.67134,0.004 -3.11511,-0.74096 -3.75628,-1.93899 -0.96002,-1.79382 -2.07711,-1.93067 -14.28518,-1.75 -11.30372,0.16729 -13.43513,0.45235 -14.55042,1.946 -1.53732,2.05885 -2.45748,2.06598 -11.67773,0.0905 z m 15.31529,-67.29833 c -18.38263,-3.35929 -32.08271,-10.97064 -44.98494,-24.9923 -6.73855,-7.3232 -7.92952,-8.1811 -13.29878,-9.57962 -13.63408,-3.55122 -25.7433,-13.61976 -31.59966,-26.27436 -4.08176,-8.82002 -2.78094,-8.87089 -22.55347,0.88206 -18.38477,9.06844 -34.40408,19.07181 -47.23384,29.49552 -10.94155,8.8896 -11.47855,9.04716 -15.53988,4.55944 -3.03922,-3.3583 -1.34921,-6.40258 8.13869,-14.66047 16.48949,-14.35182 35.28769,-25.63179 66.24102,-39.74833 3.37772,-1.54044 3.40649,-1.59845 0.82351,-1.66017 -1.47207,-0.0352 -7.32207,0.84577 -13,1.95764 -26.8065,5.24936 -48.24301,13.21286 -72.27566,26.84988 -6.02368,3.41806 -11.82853,6.08277 -12.89967,5.92159 -2.90694,-0.43743 -6.00474,-5.09428 -5.15977,-7.75655 1.44149,-4.54173 28.89842,-20.00921 48.51159,-27.32833 11.92141,-4.44876 24.88431,-8.0718 36.5,-10.2015 13.46873,-2.46944 13.5,-2.47738 13.5,-3.42791 0,-0.48571 -1.41734,-1.37721 -3.14964,-1.98109 -5.78669,-2.01725 -38.83284,2.05848 -60.68556,7.48462 -5.68436,1.41146 -10.97861,2.31939 -11.76501,2.01762 -2.21651,-0.85056 -3.693,-5.66099 -2.52462,-8.22529 2.31814,-5.08778 24.79065,-10.7369 55.37483,-13.92009 5.2674,-0.54822 5.75,-0.80347 5.75,-3.04119 0,-1.68278 1.01112,-3.05924 3.25,-4.42431 6.03683,-3.68072 16.71687,-2.03809 24.59123,3.78224 2.643,1.95357 4.83721,2.54903 10.5,2.84947 C 429.5267,543.2142 430,543.42559 430,547.82792 c 0,5.33144 -1.67616,7.14648 -6.77832,7.33994 -2.35307,0.0892 -4.15307,0.42756 -4,0.75187 0.15308,0.3243 1.13518,2.74656 2.18245,5.3828 1.04727,2.63623 2.39727,4.60667 3,4.37875 0.60273,-0.22793 5.56859,-1.43081 11.03525,-2.67308 l 9.93939,-2.25866 1.81061,2.23601 c 2.2974,2.83716 2.32616,7.24082 0.0606,9.27834 -0.9625,0.86562 -5.71502,2.68788 -10.56116,4.04947 -4.84613,1.36159 -9.04623,2.7107 -9.33355,2.99802 -0.28732,0.28732 0.34552,2.4723 1.40631,4.85551 3.92466,8.81723 12.85667,14.65367 26.80307,17.5139 18.84385,3.86464 37.00204,-4.12874 45.03559,-19.82502 2.21316,-4.32415 2.80695,-6.99303 3.08274,-13.85577 0.18787,-4.675 0.48467,-11.9536 0.65956,-16.17466 l 0.31797,-7.67467 -4.06003,-1.82533 c -2.23301,-1.00394 -7.25861,-5.02207 -11.16799,-8.92919 -15.19345,-15.18467 -16.37877,-27.27009 -3.44358,-35.11041 7.62072,-4.6191 17.85917,-6.65475 30.37607,-6.0395 19.71277,0.96895 32.658,8.88645 32.62523,19.9541 -0.0276,9.32676 -12.18058,24.01084 -26.67289,32.22808 -0.10047,0.057 0.1548,7.07632 0.56726,15.59855 0.65941,13.62465 1.06351,16.17994 3.34783,21.16955 6.82424,14.9061 25.5587,23.96073 43.21437,20.88613 14.47413,-2.52056 24.16345,-8.51465 28.60927,-17.69848 2.64647,-5.46688 2.58178,-5.53536 -7.52931,-7.97036 -8.78332,-2.11524 -12.20091,-3.81178 -13.04668,-6.47656 -0.76242,-2.40219 1.09574,-7.5605 2.98461,-8.28533 1.09973,-0.422 11.01437,1.49422 19.62356,3.79269 2.37124,0.63308 2.74852,0.28747 4.5,-4.12212 1.05146,-2.64722 2.06175,-5.15273 2.24508,-5.56781 C 607.01667,555.33961 605.52458,555 603.51759,555 597.80852,555 596,553.55657 596,549 c 0,-5.00851 1.74996,-6 10.58987,-6 5.72437,0 7.23493,-0.39173 10.18378,-2.64093 4.83879,-3.69072 12.39274,-6.35974 17.98708,-6.35533 6.06698,0.005 11.23927,2.95939 11.23927,6.42029 0,2.73366 -1.25746,2.43882 19.5,4.57223 16.90635,1.7376 37.45863,5.96237 39.64597,8.14971 2.49297,2.49297 2.33415,5.18433 -0.5004,8.47969 l -2.35443,2.73718 -14.89557,-2.67704 c -29.29101,-5.2642 -54.89636,-7.19717 -57.28074,-4.32416 -0.92506,1.11463 0.45864,1.67193 7.62755,3.07207 30.22531,5.90323 51.58751,14.13499 71.59736,27.58951 C 721.00661,595.86796 726,600.20365 726,602.48908 726,604.19024 721.70748,609 720.18926,609 c -0.49591,0 -2.88732,-1.51617 -5.31425,-3.36926 -17.7912,-13.5846 -45.70349,-25.04719 -75.73886,-31.10329 -13.43991,-2.70992 -19.46619,-2.98752 -13.63615,-0.62816 24.51259,9.92003 50.15422,25.24203 67,40.03545 9.57722,8.41041 10.89135,10.95533 7.51363,14.55076 -1.29924,1.38297 -3.02122,2.5145 -3.82662,2.5145 -0.80541,0 -4.43947,-2.41008 -8.07569,-5.35574 -15.95627,-12.92596 -31.88731,-22.85137 -52.45489,-32.68063 -17.32678,-8.28048 -16.59039,-8.24258 -19.92713,-1.02561 -5.51204,11.92189 -17.24045,21.70992 -32.44381,27.0762 -6.8694,2.42467 -7.98016,3.21721 -12.69089,9.05515 -9.53603,11.81787 -22.75512,20.51641 -37.0946,24.40932 -7.01569,1.90464 -24.95567,2.79032 -31.66914,1.56349 z M 528.4871,636.0033 c 8.19312,-2.09545 14.12347,-4.97812 21.20422,-10.30712 4.88642,-3.67753 5.29167,-4.69618 1.86828,-4.69618 -4.32869,0 -16.87213,-5.10796 -23.8215,-9.70064 -3.71905,-2.45782 -8.60909,-6.65943 -10.86676,-9.3369 l -4.10487,-4.86812 -4.9124,5.37495 c -2.70182,2.95623 -7.39898,7.02545 -10.43812,9.04272 -5.71592,3.79401 -19.79542,9.45654 -23.69474,9.52962 -1.99782,0.0374 -1.84265,0.37618 1.54296,3.36823 13.08534,11.56421 34.82315,16.29931 53.22293,11.59344 z M 501.35566,516.3912 c 5.97653,-1.56487 14.65085,-1.49051 27.29657,0.23398 3.63723,0.49601 4.23756,0.29742 4.84014,-1.60113 1.77435,-5.59048 -8.59139,-9.56219 -22.93274,-8.78686 C 497.021,506.96912 490.19724,510.763 493,516 c 1.28481,2.40068 0.77261,2.3767 8.35566,0.3912 z M 388.80321,483.65989 c -14.82926,-4.17932 -22.27293,-17.471 -18.35304,-32.77183 3.87166,-15.11257 14.49181,-24.73428 30.94899,-28.03936 14.29298,-2.87044 28.54811,6.57267 32.95511,21.83062 1.92532,6.6659 3.07984,19.94018 2.2282,25.61931 l -0.66432,4.43001 -5.20908,0.54022 c -2.86499,0.29711 -9.78428,2.38617 -15.37621,4.64235 -11.55376,4.66159 -19.37103,5.76619 -26.52965,3.74868 z M 403.91963,458.25 c 1.17766,-0.9625 2.39862,-3.3588 2.71325,-5.32512 0.46003,-2.87502 0.0832,-4.14342 -1.92428,-6.47727 -3.31944,-3.85907 -9.91226,-4.14927 -12.81536,-0.5641 -2.56711,3.17026 -2.51136,9.49837 0.10676,12.11649 2.54292,2.54292 8.94974,2.67729 11.91963,0.25 z M 620.5,483.59965 c -2.75,-0.73661 -8.14279,-2.80009 -11.98397,-4.58552 -4.18438,-1.94494 -9.27891,-3.45431 -12.709,-3.76534 l -5.72502,-0.51913 -0.67702,-4.51465 c -0.88863,-5.92582 0.19104,-19.49213 2.04904,-25.74663 3.4913,-11.75256 11.28471,-19.17308 22.44195,-21.36813 12.04946,-2.37059 27.51948,3.988 34.98114,14.37818 9.50946,13.24168 9.29143,30.53896 -0.50064,39.71796 -6.54423,6.1345 -18.5685,8.89649 -27.87648,6.40326 z m 7.18555,-25.77396 c 2.84181,-2.66975 3.12727,-8.60961 0.56445,-11.74532 -0.9625,-1.17766 -3.41662,-2.408 -5.45361,-2.7341 -3.202,-0.5126 -4.1162,-0.1803 -6.75,2.45349 -3.85542,3.85542 -4.07737,8.26017 -0.59184,11.74569 3.21655,3.21656 8.96522,3.34827 12.231,0.28024 z M 296.21109,423.03795 c -5.36181,-3.88407 -11.39254,-11.97672 -15.3495,-20.59752 -2.58591,-5.63378 -3.20222,-8.28913 -3.27363,-14.10422 -0.0767,-6.24918 0.21807,-7.49027 2.30909,-9.72098 6.40976,-6.83797 18.4696,-5.23866 26.74771,3.54714 8.66794,9.19954 13.8449,28.7888 9.83908,37.23044 -3.36627,7.09388 -13.09668,8.84346 -20.27275,3.64514 z m 418.17703,1.98198 c -3.32252,-1.34245 -6.22712,-5.76351 -6.94893,-10.57689 -1.30014,-8.66995 4.47634,-25.78985 11.03127,-32.69365 8.28988,-8.73109 23.0775,-9.94751 28.08179,-2.30998 2.6397,4.02868 1.56607,15.26843 -2.25051,23.56059 -7.64423,16.60837 -20.28226,25.91144 -29.91362,22.01993 z M 371.5,372.03883 c 26.1648,-12.67823 62.75123,-22.53002 101,-27.19673 17.16033,-2.09372 71.68275,-1.78033 86.95853,0.49983 44.96084,6.71113 82.6012,18.79272 109.54817,35.16214 3.16521,1.92276 6.2068,3.49593 6.7591,3.49593 0.5523,0 1.74849,-1.13597 2.65821,-2.52437 1.28084,-1.9548 2.22593,-9.56964 4.18879,-33.75 2.07439,-25.55433 2.85792,-31.6785 4.31402,-33.71909 l 1.77925,-2.49345 -10.60303,-3.30275 C 559.62425,271.30531 503.73042,267.66997 413.63457,291.00927 c -27.40205,7.0985 -74.96467,19.98749 -75.41348,20.4363 -0.20949,0.2095 0.30861,1.43322 1.15134,2.71939 1.13476,1.73187 2.06343,9.62378 3.57991,30.42255 1.12621,15.44623 2.04934,29.17045 2.0514,30.49827 0.002,1.32782 0.91388,3.90704 2.02627,5.73159 l 2.02254,3.31738 5.22372,-3.14064 C 357.14932,379.26675 364.9,375.23688 371.5,372.03883 Z m 336.10834,-82.38151 c 10.33862,-3.13595 12.60044,-4.33774 21.54661,-11.44853 C 743.92,266.47292 751.94784,255.38017 755.83959,241.33631 760.12266,225.88032 759.59459,214.68266 753.7959,198 747.41077,179.63019 739.62194,170.58829 718,156.4453 670.076,125.09804 612.03244,103.69628 558,97.450281 c -17.91219,-2.0706 -56.91987,-1.5505 -75.5,1.006663 -60.86811,8.377216 -126.00907,33.009426 -169.61967,64.139476 -12.69475,9.06175 -25.81555,22.53239 -30.101,30.90358 C 276.45744,205.84919 273,217.20571 273,225.62184 c 0,13.28017 4.27722,28.73166 10.01538,36.18065 4.63467,6.01648 15.85671,16.57567 21.97735,20.67921 3.97066,2.66211 9.97432,5.44273 15.40144,7.13326 l 8.89418,2.7705 13.35582,-3.4224 c 7.34571,-1.88232 13.33421,-3.65655 13.30778,-3.94273 -0.0264,-0.28618 -2.51094,-2.08027 -5.52114,-3.98686 -7.656,-4.84913 -18.01422,-15.04394 -25.28337,-24.8845 -8.44369,-11.43059 -16.34753,-27.51662 -16.9216,-34.43916 -0.41922,-5.05532 -0.26299,-5.50077 2.84731,-8.11791 2.57078,-2.16317 3.94136,-2.639 6.26356,-2.17456 4.44826,0.88965 5.38145,2.03586 11.21461,13.77454 2.9488,5.93417 7.24725,13.60611 9.55213,17.04876 10.46515,15.63114 35.68739,35.44009 43.89655,34.47532 1.925,-0.22623 10.651,-2.31873 19.39112,-4.64999 8.74012,-2.33127 23.07647,-5.69104 31.85857,-7.46617 15.37245,-3.10724 15.87753,-3.28642 13.55445,-4.80856 -8.72659,-5.71789 -22.49646,-21.56812 -31.09357,-35.79124 -8.62147,-14.26341 -14.9821,-33.23156 -17.85452,-53.2443 -1.19261,-8.3092 -1.15298,-8.88142 0.79659,-11.5 3.8593,-5.18365 10.79281,-5.55788 13.94143,-0.75248 0.89065,1.35931 2.73002,7.76466 4.08749,14.23412 4.29421,20.46541 9.39877,33.01748 19.62704,48.26266 9.74927,14.53125 26.93944,30.09933 37.46627,33.93091 4.17816,1.52078 8.10185,1.66951 33.89591,1.28485 l 29.17078,-0.43501 10.07178,-20.14037 C 552.45281,224.56317 558.31566,211.45 559.94189,206.5 c 3.57278,-10.87501 7.29671,-30.7223 9.56486,-50.97749 0.92245,-8.23762 2.30296,-16.18764 3.06782,-17.66671 2.0091,-3.88517 7.35306,-5.46171 11.40716,-3.36525 5.07582,2.62481 5.43381,4.99408 3.55225,23.50945 -3.64747,35.89263 -8.21779,52.98456 -21.99443,82.25392 -7.91238,16.81037 -8.24178,17.77792 -6.19802,18.20556 1.18716,0.2484 6.88347,1.18902 12.65847,2.09025 14.17884,2.21271 31.87824,5.9358 47.10421,9.90843 l 12.60422,3.28858 7.36605,-5.57334 c 10.58902,-8.01192 22.36971,-19.51722 28.82992,-28.15599 3.16719,-4.23524 10.1609,-16.59195 16.11505,-28.47257 7.55543,-15.07572 11.23791,-21.39324 13.06929,-22.42117 5.16848,-2.901 11.91126,1.42073 11.91126,7.63441 0,4.10414 -4.30985,14.69938 -12.50496,30.74192 -11.51352,22.53858 -20.22578,34.18436 -34.41684,46.00536 -3.89301,3.24284 -7.0782,6.18197 -7.0782,6.5314 0,0.34944 2.5875,1.38517 5.75,2.30162 3.1625,0.91646 12.5,3.68243 20.75,6.14662 8.25,2.46418 15.675,4.28941 16.5,4.05605 0.825,-0.23335 5.14875,-1.53103 9.60834,-2.88373 z"
       id="path1"
       inkscape:label="murmli" />
    <path
       style="display:inline;fill:none;stroke-width:3.3"
       d="M 75.752671,0.16495663 948.94775,1.1859668 a 75.082564,75.082564 45.035475 0 1 74.99475,75.0876962 l -0.06,872.751237 a 75.000005,75.000005 135.00395 0 1 -75.0052,74.9948 l -873.79984,-0.06 A 74.955707,74.955707 45.020875 0 1 0.12673886,948.95432 L 0.70324414,75.077244 A 74.961792,74.961792 135.0524 0 1 75.752671,0.16495663 Z"
       id="path3"
       sodipodi:nodetypes="ccccc"
       inkscape:path-effect="#path-effect3"
       inkscape:original-d="M 0.75272236,0.07726064 1023.9477,1.2736628 1023.8771,1024.0249 0.07726064,1023.9543 Z"
       inkscape:label="background" />
    <rect
       style="display:inline;fill:#ffffff;fill-opacity:0;stroke:#ffffff;stroke-width:100;stroke-linecap:square;stroke-linejoin:miter;stroke-dasharray:none;stroke-opacity:1;paint-order:normal"
       id="rect18"
       width="1050.7106"
       height="1050.7106"
       x="-13.67372"
       y="-13.67372"
       rx="134.82693"
       ry="134.82693"
       inkscape:label="rahmen" />
    <path
       style="fill:#178df5;fill-opacity:1;stroke-width:1.27366;fill-rule:nonzero"
       d="M 108.89817,986.89219 C 75.166977,981.61375 47.858351,957.52667 38.882469,925.13612 36.31232,915.86143 36.299485,913.79365 36.318217,512.03806 36.339065,64.886365 35.607708,101.71112 44.848352,82.534734 48.639769,74.666701 52.025789,70.209018 61.117516,61.116439 72.908068,49.324782 80.092304,44.860907 96.161543,39.342075 102.97238,37.002955 114.48954,36.936222 511.37562,36.936222 h 408.20894 l 8.91564,2.824878 c 12.27886,3.8905 23.72699,10.936069 33.69634,20.737884 10.05771,9.888684 16.46011,20.039882 21.31023,33.788052 l 3.58192,10.153314 V 511.37562 918.3109 l -3.46998,10.1893 c -4.89926,14.38625 -11.63973,25.01579 -22.26086,35.10483 -10.82444,10.28217 -18.95952,15.23218 -32.85765,19.99317 l -10.1893,3.49049 -403.11429,0.15088 c -221.71285,0.083 -404.54715,-0.0733 -406.29844,-0.34738 z m 559.77481,-54.5808 c 6.30006,-3.62256 20.84023,-18.61275 29.82823,-30.75139 4.69495,-6.34074 9.89637,-11.3485 17.11562,-16.47841 5.70404,-4.05322 14.8206,-11.66736 20.25902,-16.92033 5.78484,-5.58754 10.32735,-9.05584 10.94668,-8.35801 0.58223,0.65605 2.37198,4.79675 3.97719,9.20156 1.60522,4.40481 3.55701,7.81574 4.33729,7.57987 0.78028,-0.23588 4.40634,-4.85403 8.05789,-10.26256 10.26492,-15.20397 16.92358,-39.88638 16.92358,-62.73254 0,-5.8711 0.58275,-10.9443 1.3087,-11.39296 0.71977,-0.44485 4.00724,0.97862 7.30546,3.16329 3.29823,2.18465 6.19749,3.36993 6.44281,2.63396 1.18298,-3.54895 -17.42373,-32.95484 -30.24976,-47.80647 -4.23481,-4.9036 -7.70718,-9.42441 -7.71639,-10.04624 -0.01,-0.64489 3.12945,-0.69546 7.30681,-0.11769 13.44293,1.8593 15.96319,1.58459 17.76034,-1.93586 5.05277,-9.89794 -0.90306,-48.60788 -11.3337,-73.66343 l -3.96148,-9.51588 -3.73081,7.37816 c -8.41256,16.63683 -23.52459,25.79046 -71.56988,43.35111 -30.01488,10.9705 -33.1969,11.65741 -33.1969,7.16639 0,-2.49168 3.63603,-5.28342 21.65227,-16.62457 24.47013,-15.40386 31.81681,-20.47872 44.68717,-30.86858 16.1301,-13.02136 29.0562,-29.04869 36.18158,-44.86227 3.29569,-7.31424 8.92448,-27.44886 8.92448,-31.92358 0,-4.05421 3.33771,-1.81622 7.38636,4.95268 6.24244,10.43666 7.16664,10.32646 6.23094,-0.74294 -2.35592,-27.87038 -17.1058,-57.01462 -40.6512,-80.32253 -6.14679,-6.0848 -11.17599,-11.62854 -11.17599,-12.31944 0,-2.60305 9.83912,-4.61708 22.60609,-4.62737 7.1795,-0.006 13.05427,-0.18227 13.05505,-0.39219 0.006,-1.63477 -4.25489,-7.85969 -7.20843,-10.5309 -7.31113,-6.61222 -12.818,-8.85945 -26.2238,-10.70137 -3.52551,-0.4844 -6.0499,-1.4916 -6.0499,-2.41385 0,-5.00691 17.09172,-15.54714 29.29425,-18.06538 l 7.00514,-1.44564 -4.07871,-3.83975 c -4.13678,-3.89442 -10.13166,-6.0008 -21.07613,-7.40541 -3.32744,-0.42705 -6.04989,-1.10062 -6.04989,-1.49684 0,-0.39621 3.81202,-4.63436 8.47114,-9.41812 9.53551,-9.79056 11.61225,-12.59762 17.35461,-23.45747 3.61737,-6.84111 4.04422,-8.78576 4.07309,-18.55603 0.0289,-9.78027 -0.32866,-11.45992 -3.44182,-16.16879 -1.91073,-2.89011 -6.19046,-6.84667 -9.51051,-8.79235 -12.9497,-7.58902 -35.85573,-2.61064 -44.80022,9.73687 -4.7246,6.52212 -10.87595,22.36922 -13.38082,34.4717 -1.03576,5.00434 -2.06907,9.28468 -2.29623,9.51185 -0.22717,0.22716 -6.71712,-3.59882 -14.42211,-8.50218 -33.15541,-21.09968 -66.29997,-32.7701 -113.99162,-40.13721 -18.28327,-2.82428 -68.95395,-3.18352 -89.15639,-0.63209 -49.54302,6.25693 -91.87091,20.45858 -124.67206,41.82937 -5.87357,3.82678 -11.08118,6.49047 -11.57247,5.91931 -0.49129,-0.57117 -1.49987,-4.48215 -2.24129,-8.6911 -1.84922,-10.49781 -8.40393,-26.80242 -13.62588,-33.89391 -5.03965,-6.84394 -12.26381,-10.77757 -23.39358,-12.73803 -19.1263,-3.36904 -35.01299,9.79049 -35.01299,29.00254 0,11.64937 13.59153,35.33609 25.99589,45.3045 2.71475,2.18165 4.93592,4.35985 4.93592,4.84046 0,0.48061 -4.06929,1.54587 -9.04286,2.36724 -4.97356,0.82136 -10.84833,2.40735 -13.05504,3.5244 -8.29036,4.19666 -10.3091,8.05185 -4.25543,8.1266 7.84055,0.0968 31.44798,13.89008 31.44798,18.37432 0,1.025 -2.32568,2.02935 -5.96183,2.57463 -9.61603,1.44201 -21.15431,5.55318 -24.88585,8.867 -3.20003,2.84181 -8.62005,10.55838 -8.6311,12.28826 -0.003,0.40953 4.52509,0.48238 10.06159,0.16188 10.7222,-0.62069 21.95595,1.33657 24.37066,4.24614 1.15056,1.38633 -1.35378,4.67845 -12.1931,16.02862 -7.50258,7.85617 -15.4992,17.19409 -17.77025,20.75094 -10.81301,16.93489 -17.62615,34.48591 -19.83735,51.10209 -2.10074,15.78608 -1.40488,16.67219 5.20632,6.62982 3.11289,-4.72847 6.03353,-8.59722 6.49031,-8.59722 0.45677,0 1.2252,2.72245 1.70762,6.0499 0.48243,3.32744 2.54012,11.05754 4.57266,17.178 11.43611,34.43699 28.64479,52.11506 85.90634,88.24955 14.95032,9.4343 20.48702,13.60248 20.7856,15.64797 0.3291,2.25451 -0.22333,2.78819 -2.88616,2.78819 -6.6606,0 -69.4027,-24.21967 -81.08871,-31.30182 -8.83817,-5.35625 -16.45994,-13.48428 -20.94624,-22.33758 l -3.41727,-6.74367 -4.82703,11.59669 c -10.27833,24.69315 -16.01262,61.96033 -11.03435,71.71231 1.79437,3.51501 4.75078,3.85446 17.1235,1.96606 4.55889,-0.69581 6.68673,-0.5841 6.68673,0.35105 0,0.7544 -2.72523,4.69699 -6.05606,8.76131 -8.3745,10.21865 -15.7111,20.23482 -20.33963,27.76829 -5.55638,9.04367 -11.92445,21.32973 -11.35218,21.902 0.26673,0.26673 3.43029,-1.34595 7.03012,-3.58373 3.59984,-2.23778 6.79077,-3.82308 7.09096,-3.52289 0.30019,0.30019 1.14914,7.49417 1.88655,15.98662 2.18742,25.19175 6.3603,41.02971 14.6753,55.69928 6.10664,10.77354 10.48755,15.97064 11.3809,13.50125 4.90407,-13.55593 6.37,-16.82814 7.78156,-17.36981 0.92414,-0.35463 6.08988,3.81329 11.65706,9.40538 5.49862,5.52323 14.13227,12.88406 19.18588,16.3574 6.89701,4.74029 11.14153,9.00738 17.02033,17.1108 4.30755,5.93759 10.20286,13.30274 13.10069,16.367 7.12945,7.53891 19.61758,16.71772 22.7451,16.71772 2.24995,0 2.44515,-0.55331 1.66404,-4.71699 -1.12011,-5.97072 -4.38489,-12.38232 -10.1527,-19.93854 -6.64636,-8.70722 -6.01763,-10.17987 2.77731,-6.50511 5.98134,2.49917 16.47001,10.40514 27.41804,20.66668 4.73829,4.44119 9.18019,7.72563 9.87088,7.29876 2.12269,-1.31188 1.33832,-12.42049 -1.28516,-18.20102 -1.36674,-3.0115 -4.31638,-8.02559 -6.55473,-11.14243 -2.23835,-3.11685 -3.66405,-6.07268 -3.16822,-6.5685 1.92717,-1.92717 10.90986,4.59372 23.44348,17.01854 l 13.09007,12.97645 2.09883,-3.20323 c 1.15435,-1.76176 2.35709,-6.31755 2.67275,-10.12398 1.04984,-12.65973 -6.14568,-25.43459 -18.33946,-32.55972 -8.67687,-5.07009 -11.12203,-8.21828 -7.83602,-10.08902 1.2259,-0.69791 2.22891,-2.03106 2.22891,-2.96256 0,-3.31827 -10.31378,-12.23045 -26.74864,-23.11359 -16.82743,-11.14311 -19.72657,-14.64124 -12.93487,-15.6074 2.82186,-0.40142 2.90928,-0.72419 1.89747,-7.00515 -0.58337,-3.62138 -1.04789,-12.02923 -1.03225,-18.68412 0.023,-9.79318 0.57395,-13.29447 2.89009,-18.36665 3.71953,-8.14553 11.26088,-17.29591 14.25452,-17.29591 2.20997,0 2.31115,1.05503 1.63886,17.08945 -0.73492,17.52815 0.49413,28.25962 4.33622,37.86194 1.40112,3.50177 4.21776,6.31859 10.72036,10.72106 10.37862,7.02667 21.24543,18.35499 26.01701,27.12194 1.87082,3.43732 4.84567,7.02257 6.61078,7.96723 5.96991,3.195 14.29236,13.8068 16.33279,20.82564 l 1.93827,6.66742 14.29433,0.82367 c 18.38147,1.05918 105.74779,1.05902 112.15878,-2.2e-4 2.85056,-0.47098 5.15125,-1.65933 5.52104,-2.85172 2.4009,-7.74161 5.74239,-12.74864 12.86112,-19.27167 4.47493,-4.10045 10.13298,-10.78555 12.57346,-14.85577 5.84241,-9.74397 11.70947,-15.73166 23.74495,-24.23319 15.44768,-10.91182 18.3682,-19.47444 16.95703,-49.71608 -0.96006,-20.57448 -0.52122,-21.40917 7.03137,-13.37346 9.94304,10.57908 13.33803,21.03277 12.08524,37.21232 -0.46285,5.97765 -1.16109,12.61716 -1.55167,14.75448 -0.6042,3.30641 -0.20425,4.11655 2.68145,5.43135 1.86537,0.84993 3.15826,2.25351 2.87312,3.11911 -0.65003,1.97321 -7.64839,7.16174 -22.16076,16.42984 -11.45844,7.31775 -22.09908,16.81332 -22.09908,19.72093 0,0.87771 0.94827,2.12652 2.10726,2.77513 3.20826,1.79543 1.32707,4.66992 -6.21258,9.49298 -17.08639,10.93004 -23.99128,26.7887 -18.08782,41.54289 l 2.00644,5.0146 11.0486,-11.14613 c 10.74721,-10.84206 24.96521,-21.63887 26.48899,-20.11507 0.41519,0.41518 -1.83874,4.94397 -5.00874,10.06396 -6.4334,10.39089 -9.08263,18.50036 -7.86092,24.06279 0.4487,2.04293 1.13645,3.71441 1.52833,3.71441 0.3919,0 5.22165,-4.308 10.7328,-9.57332 5.51117,-5.26533 13.11492,-11.55294 16.89726,-13.97246 7.40587,-4.73748 17.02561,-9.00163 18.03351,-7.99373 0.3415,0.34151 -1.98371,4.08585 -5.16715,8.32077 -5.78556,7.6965 -9.79369,15.57617 -11.37638,22.36512 -0.7694,3.3003 -0.59442,3.53078 2.07527,2.73348 1.60352,-0.47889 5.2081,-2.18896 8.01016,-3.80015 z M 362.45847,375.86066 c 22.88008,-11.85204 50.21943,-21.01449 79.7719,-26.7346 27.6007,-5.34233 39.47711,-6.17263 79.59809,-5.56484 33.66132,0.50993 38.99083,0.89218 54.50397,3.90928 35.85933,6.97419 66.02157,17.12923 88.11988,29.66826 5.42509,3.0783 10.47101,5.59692 11.21316,5.59692 2.55191,0 3.63348,-6.06289 6.34502,-35.56798 1.49502,-16.26786 3.22021,-30.89827 3.83376,-32.51201 1.083,-2.8485 0.55155,-3.10485 -18.21716,-8.78731 -42.9763,-13.01162 -74.17347,-20.55757 -104.29142,-25.22593 -14.69616,-2.27795 -23.85803,-2.8366 -47.50223,-2.8965 -42.25693,-0.10706 -59.47796,2.6707 -126.09262,20.33877 -47.0503,12.47905 -50.49593,13.55068 -49.75744,15.47515 1.08727,2.8334 3.11791,22.33821 4.50739,43.29481 1.03397,15.59467 2.81464,25.881 4.48026,25.881 0.11846,0 6.1878,-3.09375 13.48744,-6.87502 z m 347.88196,-87.99693 c 17.69919,-6.02967 37.59567,-25.62825 43.41309,-42.76305 5.70307,-16.79797 5.38786,-30.78461 -1.08109,-47.97101 -7.27334,-19.32347 -17.75614,-29.95863 -46.42639,-47.1011 -50.77367,-30.35851 -109.60097,-49.66581 -159.65817,-52.400296 -24.13893,-1.318643 -59.28167,0.330797 -77.24312,3.625436 -42.09095,7.72069 -81.85553,20.92464 -117.17698,38.90898 -49.85301,25.38327 -73.45686,49.95082 -78.30955,81.50682 -1.71591,11.15814 3.82577,31.8882 10.93634,40.9101 10.03255,12.72935 29.0319,25.65378 40.94652,27.85412 4.9446,0.91316 27.70035,-3.80501 27.70035,-5.74337 0,-0.52904 -2.24646,-2.44851 -4.99214,-4.26552 -12.15068,-8.04095 -27.37257,-26.76237 -35.25462,-43.35972 -6.07677,-12.79596 -6.96033,-19.81745 -2.96245,-23.54204 3.79812,-3.53849 8.96107,-3.48221 12.281,0.13386 1.44707,1.57616 4.48916,6.583 6.76019,11.12631 2.27103,4.54332 6.39114,11.84219 9.15579,16.2197 8.31529,13.16632 31.76095,32.847 40.86702,34.30444 2.47382,0.39594 11.31821,-1.175 22.49799,-3.99612 10.13192,-2.5567 23.84813,-5.76507 30.48043,-7.12972 6.63232,-1.36465 12.31209,-2.73451 12.62172,-3.04416 0.30963,-0.30962 -2.90157,-4.0275 -7.13601,-8.26194 -22.56721,-22.5672 -37.76129,-53.92222 -40.62417,-83.83334 -0.6879,-7.18724 -0.46598,-8.31576 2.19153,-11.14456 3.57082,-3.80095 9.17351,-4.1289 12.56681,-0.73559 1.44943,1.44943 3.54404,7.42154 5.24888,14.96553 7.13494,31.57244 19.95444,54.01783 40.73839,71.32804 14.35232,11.95354 14.19056,11.91387 48.57432,11.91387 h 29.93879 l 9.72077,-20.06019 c 5.34642,-11.03311 10.82994,-22.92925 12.18559,-26.43588 3.16017,-8.17427 7.11925,-27.52124 9.77238,-47.75498 2.64336,-20.1592 3.93039,-25.11208 6.94465,-26.72526 3.90735,-2.09116 8.75424,-1.49721 11.68312,1.43168 2.5477,2.5477 2.67251,3.5586 1.89817,15.37434 -2.33243,35.59141 -8.17475,58.26349 -23.86948,92.62955 -3.35689,7.35045 -5.98839,13.47683 -5.84778,13.61418 0.14061,0.13734 8.56631,1.7252 18.72377,3.52856 10.15746,1.80335 26.48541,5.24695 36.28432,7.65242 l 17.81622,4.37359 8.91727,-7.20482 c 19.55792,-15.80208 28.43764,-26.82373 40.2079,-49.90674 3.75059,-7.3554 8.73799,-16.66906 11.08311,-20.69702 3.82669,-6.5727 4.6944,-7.32356 8.46326,-7.32356 4.21948,0 7.27254,2.33318 8.84695,6.76098 2.61125,7.34376 -21.33751,53.96911 -35.12552,68.38512 -2.34499,2.4518 -7.28524,7.23832 -10.97832,10.63669 -3.69309,3.39838 -6.49696,6.39662 -6.23081,6.66276 1.54177,1.54177 40.23862,11.74301 42.35042,11.1644 1.40103,-0.38387 6.39583,-2.00904 11.09954,-3.61149 z"
       id="path2" />
    <path
       style="fill:#178df5;fill-opacity:1;fill-rule:nonzero;stroke-width:1.27366"
       d="m 711.66062,424.08309 c -11.44695,-8.01776 -1.31294,-41.67434 14.6047,-48.50443 8.6761,-3.72282 19.93761,-0.93298 21.50915,5.32852 3.40858,13.58089 -7.71871,37.06588 -20.41699,43.09162 -5.43468,2.57892 -12.08429,2.61463 -15.69686,0.0843 z"
       id="path4" />
    <path
       style="fill:#178df5;fill-opacity:1;fill-rule:nonzero;stroke-width:1.27366"
       d="m 610.77234,480.65011 c -5.2258,-2.1157 -12.30467,-4.17874 -15.73083,-4.58452 l -6.22938,-0.73777 0.49479,-14.77292 c 0.39041,-11.65651 1.07323,-16.04717 3.23683,-20.81339 6.68384,-14.72387 21.16848,-20.65739 38.13103,-15.62005 13.69092,4.06576 23.71841,16.15275 25.43035,30.65334 2.84976,24.13843 -18.92456,36.5669 -45.33279,25.87531 z m 15.83861,-23.22487 c 1.47401,-1.07783 2.36621,-3.3069 2.36621,-5.91177 0,-7.61962 -8.30426,-10.34311 -13.06874,-4.28605 -3.29994,4.19519 -3.31925,6.1539 -0.0924,9.3807 2.95358,2.95358 7.41169,3.29103 10.79497,0.81712 z"
       id="path5" />
    <path
       style="fill:#178df5;fill-opacity:1;fill-rule:nonzero;stroke-width:1.27366"
       d="m 291.6385,419.28517 c -8.86999,-9.15776 -13.79731,-19.50594 -14.40451,-30.25185 -0.45875,-8.11872 -0.33989,-8.51119 3.57529,-11.80559 8.38015,-7.05143 22.314,-2.70862 29.93175,9.32894 7.717,12.19438 9.64004,29.93545 3.9145,36.1134 -2.61205,2.81846 -4.21611,3.37014 -9.7988,3.37014 -6.38997,0 -6.95527,-0.28888 -13.21823,-6.75504 z"
       id="path6" />
    <path
       style="fill:#178df5;fill-opacity:1;fill-rule:nonzero;stroke-width:1.27366"
       d="m 383.05619,481.94831 c -13.63171,-6.74758 -18.07913,-23.07752 -10.53141,-38.66903 5.9001,-12.18799 17.29376,-19.59327 31.87765,-20.71879 18.89148,-1.45798 30.37067,10.92656 32.62664,35.19984 0.44695,4.80905 0.42393,10.81576 -0.0512,13.34823 -0.71982,3.83697 -1.3964,4.6045 -4.05881,4.6045 -1.75726,0 -9.19078,2.00602 -16.51894,4.45782 -15.94689,5.33539 -25.1635,5.82669 -33.34396,1.77743 z m 20.27622,-24.90076 c 4.91934,-4.45194 1.21401,-13.17606 -5.59617,-13.17606 -4.11787,0 -7.71635,4.89789 -6.83525,9.30342 0.43378,2.16888 1.49649,4.39299 2.36159,4.94247 2.64575,1.68051 7.61399,1.15268 10.06983,-1.06983 z"
       id="path7" />
    <path
       style="fill:#178df5;fill-opacity:1;fill-rule:nonzero;stroke-width:1.27366"
       d="m 492.07652,652.2779 c -12.77078,-3.78033 -21.95177,-9.48469 -34.164,-21.22685 -7.85304,-7.55077 -11.4579,-10.06543 -16.87886,-11.77424 -13.04943,-4.11346 -21.73968,-11.49938 -28.95138,-24.60602 -1.88796,-3.43121 -4.38337,-6.4223 -5.54534,-6.64687 -2.55249,-0.49331 -28.56128,12.45031 -42.95133,21.3753 -5.71325,3.54347 -14.82554,9.87573 -20.24954,14.07169 -5.42399,4.19596 -11.08746,7.62902 -12.58549,7.62902 -3.82437,0 -7.20403,-5.41348 -5.43882,-8.7118 4.50571,-8.419 32.63458,-28.23998 58.59159,-41.28651 9.51524,-4.78256 15.86757,-8.41727 14.11628,-8.07713 -33.46912,6.50047 -51.91791,12.85506 -78.44095,27.01862 -7.65279,4.08666 -14.39093,6.87101 -16.04982,6.63213 -1.57262,-0.22646 -3.73818,-2.02769 -4.81236,-4.00273 -1.91823,-3.52695 -1.86219,-3.66835 3.14159,-7.92734 7.65024,-6.51155 37.62511,-21.30993 53.49384,-26.40954 7.70566,-2.47631 19.68814,-5.69623 26.62773,-7.15538 6.93959,-1.45915 12.88199,-2.91755 13.20533,-3.2409 3.58212,-3.58211 -30.80024,-0.48649 -56.63492,5.09913 -17.42604,3.76763 -17.77524,3.77546 -19.56102,0.43869 -2.66339,-4.97659 -0.52055,-8.39547 7.03343,-11.22178 7.79597,-2.91684 27.89127,-7.17893 39.51875,-8.38167 11.56488,-1.19627 13.13157,-1.70891 14.04813,-4.59675 0.46445,-1.46335 2.868,-3.50612 5.34121,-4.5395 5.67997,-2.37324 12.99323,-1.31036 20.73104,3.01297 3.56297,1.99073 9.04598,3.58168 14.49187,4.20497 8.73891,1.00018 10.92387,2.33063 10.96189,6.67485 0.0285,3.2556 -4.57742,7.32356 -8.29202,7.32356 -3.21201,0 -3.21369,0.006 -1.11168,4.13941 1.15785,2.27667 2.23476,4.29411 2.39312,4.48319 0.15837,0.18908 5.10053,-0.81072 10.98257,-2.22179 9.99321,-2.3973 10.79904,-2.42477 12.28671,-0.41876 0.87564,1.18074 1.59208,3.95623 1.59208,6.16775 0,3.43274 -0.6987,4.32094 -4.77624,6.07168 -2.62693,1.1279 -7.21212,2.73854 -10.1893,3.5792 -5.98663,1.69042 -6.23657,2.2066 -3.56763,7.36775 3.22259,6.23183 10.39896,11.36595 19.93621,14.2628 16.74494,5.08612 32.43062,1.51514 43.43138,-9.88754 7.01571,-7.27203 8.82792,-12.87561 9.59897,-29.68125 l 0.67392,-14.68857 -6.47278,-4.18804 c -12.24683,-7.92397 -20.61395,-19.83311 -20.61395,-29.34038 0,-13.74019 20.8825,-22.68924 44.97254,-19.27266 22.82531,3.23721 32.17398,13.94504 25.04044,28.68097 -2.78366,5.75027 -15.58519,19.07125 -21.10885,21.96538 l -3.38285,1.77246 0.87485,13.56459 c 0.48117,7.46053 1.41357,15.62557 2.07201,18.14454 2.82607,10.81148 14.31791,21.11234 26.9283,24.13753 13.01896,3.1232 30.87368,-1.17454 39.54,-9.51751 4.04203,-3.89122 7.76229,-10.51382 6.37527,-11.3489 -0.52282,-0.31477 -5.03944,-1.78464 -10.03694,-3.26639 -10.06121,-2.98311 -12.59026,-5.04785 -11.44573,-9.34437 1.89252,-7.1044 1.94637,-7.11089 22.59567,-2.72115 2.8803,0.61231 3.53426,0.14426 4.77624,-3.41847 1.84864,-5.30306 1.94141,-5.02147 -1.65419,-5.02147 -4.14066,0 -7.09612,-3.18938 -7.09612,-7.65778 0,-4.5657 0.8819,-5.09897 9.90363,-5.98859 4.09837,-0.40413 9.52163,-1.99869 12.38547,-3.64162 11.85883,-6.80314 26.41717,-6.7484 28.13747,0.1058 0.87578,3.4894 0.4961,3.39002 24.17093,6.32649 19.16502,2.3771 33.21936,5.49852 35.63533,7.91449 2.46079,2.4608 2.29211,5.47626 -0.51015,9.11963 l -2.30301,2.99426 -19.63935,-3.44609 c -17.5774,-3.08428 -53.78642,-5.91039 -52.09562,-4.06606 0.36243,0.39534 7.08722,2.16989 14.94395,3.94345 17.67133,3.98906 31.00879,8.45062 44.25923,14.8053 16.65853,7.98914 36.29939,22.12992 36.29939,26.13438 0,1.9908 -4.41474,6.95018 -6.18692,6.95018 -0.78666,0 -5.30463,-2.66933 -10.0399,-5.93185 -10.64839,-7.33653 -27.88151,-15.62077 -42.9985,-20.67007 -11.35901,-3.79407 -32.97401,-9.06064 -37.18664,-9.06064 -1.20333,0 4.75368,3.42261 13.23779,7.6058 25.09946,12.37559 56.00424,34.71484 58.37971,42.19928 0.96999,3.05616 -2.49375,7.50975 -5.84063,7.50975 -1.22085,0 -6.14706,-3.07157 -10.94715,-6.8257 -4.80009,-3.75413 -13.20789,-9.74935 -18.68401,-13.32271 -12.52555,-8.17337 -41.85894,-23.15613 -45.33529,-23.15613 -1.83762,0 -3.54021,1.80157 -5.71749,6.0499 -4.31679,8.42287 -13.80239,17.20273 -24.32606,22.51616 -4.9036,2.47584 -9.64577,4.51225 -10.53813,4.52535 -0.89238,0.0131 -6.36758,4.81183 -12.16713,10.66384 -8.41437,8.4905 -12.71813,11.70269 -21.30343,15.9002 -17.19083,8.4049 -36.94068,10.14158 -54.89434,4.82706 z m 34.55059,-16.79961 c 8.41051,-1.91294 24.61785,-10.28781 24.44842,-12.63333 -0.0438,-0.60637 -3.11944,-2.05308 -6.83473,-3.2149 -10.1624,-3.1779 -16.488,-6.82354 -24.42325,-14.07592 l -7.17847,-6.56071 -7.53552,6.97656 c -7.12062,6.59243 -23.13749,14.94064 -28.66512,14.94064 -8.68964,0 10.48404,11.72842 23.96935,14.66191 10.48472,2.28076 15.86216,2.26142 26.21932,-0.0942 z m 5.63658,-121.41318 c -0.0701,-0.7787 -0.21333,-1.94452 -0.31841,-2.59071 -0.37334,-2.29591 -9.88314,-4.43162 -19.29599,-4.3335 -10.9312,0.11395 -19.10491,2.85149 -19.10502,6.39864 -7e-5,2.11686 1.49906,2.2803 19.42336,2.11765 13.38089,-0.12143 19.38381,-0.61672 19.29606,-1.59208 z"
       id="path8" />
    <path
       style="fill:#178df5;fill-opacity:1;fill-rule:nonzero;stroke-width:1.27366"
       d="m 527.23454,722.21691 c -2.9173,-2.20615 -26.65927,-2.78947 -27.95871,-0.68692 -2.21014,3.57607 -21.05653,-0.62226 -35.66256,-7.94439 -11.6116,-5.82099 -30.69152,-17.39802 -33.14929,-20.11382 -1.25089,-1.38222 -1.83795,-3.32021 -1.37289,-4.53215 0.6576,-1.71368 1.8404,-1.9552 6.20437,-1.26689 7.8746,1.24203 25.15434,5.50566 31.62589,7.80342 4.51578,1.60335 8.62355,1.82134 21.09819,1.11966 18.66329,-1.04979 21.24674,-0.53684 23.39299,4.64465 l 1.63302,3.94248 1.65088,-3.92628 c 1.91961,-4.5654 1.32634,-4.45656 24.69978,-4.5312 14.29346,-0.0456 18.48377,-0.51762 24.83642,-2.79744 11.23957,-4.03362 29.75623,-7.47124 31.39838,-5.82911 2.53363,2.53364 -0.24139,6.07015 -9.43394,12.02273 -25.70647,16.64606 -52.76165,26.78455 -58.96253,22.09526 z"
       id="path9" />
  </g>
</svg>
