<?xml version="1.0" encoding="UTF-8" standalone="no"?>
<!-- Created with Inkscape (http://www.inkscape.org/) -->

<svg
   version="1.1"
   id="svg1"
   width="1024"
   height="1024"
   viewBox="0 0 1024 1024"
   sodipodi:docname="murmli_logo_inkscape.svg"
   inkscape:version="1.3 (0e150ed6c4, 2023-07-21)"
   inkscape:export-filename="..\..\Downloads\murmli_logo\favicon.png"
   inkscape:export-xdpi="1.5"
   inkscape:export-ydpi="1.5"
   xmlns:inkscape="http://www.inkscape.org/namespaces/inkscape"
   xmlns:sodipodi="http://sodipodi.sourceforge.net/DTD/sodipodi-0.dtd"
   xmlns="http://www.w3.org/2000/svg"
   xmlns:svg="http://www.w3.org/2000/svg">
  <defs
     id="defs1">
    <linearGradient
       id="swatch9"
       inkscape:swatch="solid">
      <stop
         style="stop-color:#ffffff;stop-opacity:1;"
         offset="0"
         id="stop9" />
    </linearGradient>
    <inkscape:path-effect
       effect="fillet_chamfer"
       id="path-effect4"
       is_visible="true"
       lpeversion="1"
       nodesatellites_param="F,0,0,1,0,100,0,1 @ F,0,0,1,0,100,0,1 @ F,0,0,1,0,100,0,1 @ F,0,0,1,0,100,0,1"
       radius="100"
       unit="px"
       method="auto"
       mode="F"
       chamfer_steps="1"
       flexible="false"
       use_knot_distance="true"
       apply_no_radius="true"
       apply_with_radius="true"
       only_selected="false"
       hide_knots="false" />
    <inkscape:path-effect
       effect="fillet_chamfer"
       id="path-effect3"
       is_visible="true"
       lpeversion="1"
       nodesatellites_param="F,0,0,1,0,75,0,1 @ F,0,0,1,0,75,0,1 @ F,0,0,1,0,75,0,1 @ F,0,0,1,0,75,0,1"
       radius="75"
       unit="px"
       method="auto"
       mode="F"
       chamfer_steps="1"
       flexible="false"
       use_knot_distance="true"
       apply_no_radius="true"
       apply_with_radius="true"
       only_selected="false"
       hide_knots="false" />
    <inkscape:path-effect
       effect="bspline"
       id="path-effect2"
       is_visible="true"
       lpeversion="1.3"
       weight="33.333333"
       steps="2"
       helper_size="0"
       apply_no_weight="true"
       apply_with_weight="true"
       only_selected="false"
       uniform="false" />
  </defs>
  <sodipodi:namedview
     id="namedview1"
     pagecolor="#ffffff"
     bordercolor="#000000"
     borderopacity="0.25"
     inkscape:showpageshadow="2"
     inkscape:pageopacity="0.0"
     inkscape:pagecheckerboard="0"
     inkscape:deskcolor="#d1d1d1"
     inkscape:zoom="0.78513715"
     inkscape:cx="486.5392"
     inkscape:cy="438.77684"
     inkscape:window-width="2560"
     inkscape:window-height="1351"
     inkscape:window-x="-9"
     inkscape:window-y="1191"
     inkscape:window-maximized="1"
     inkscape:current-layer="g1"
     inkscape:export-bgcolor="#fffffffc" />
  <g
     inkscape:groupmode="layer"
     inkscape:label="Image"
     id="g1">
    <path
       style="display:inline;fill:#f57f17;fill-opacity:1"
       d="M 0,512 V 0 h 512 512 v 512 512 H 512 0 Z m 671.10902,419.93004 c 6.66122,-4.27449 19.23696,-17.71786 27.56349,-29.46515 6.5277,-9.20945 7.92395,-10.5599 16.97021,-16.41351 6.61946,-4.28329 13.19822,-9.77363 20.02851,-16.71489 C 741.26541,863.65142 746.04915,859 746.30176,859 c 0.25262,0 1.89484,4.5 3.64939,10 1.75454,5.5 3.72081,9.99541 4.36947,9.98981 2.15042,-0.0186 12.59203,-15.35577 16.25775,-23.88025 6.6328,-15.4243 10.4131,-35.00522 10.41881,-53.96655 0.003,-10.783 -0.35539,-10.6264 9.11786,-3.98129 3.25081,2.28031 6.18863,3.86795 6.52849,3.52809 1.73356,-1.73356 -10.78269,-24.93995 -20.53366,-38.07149 -2.40214,-3.23492 -7.67751,-9.60198 -11.72307,-14.14901 -5.34201,-6.00419 -6.95642,-8.42048 -5.8975,-8.82683 0.80192,-0.30773 5.06799,0.35337 9.48014,1.46911 9.57691,2.4218 11.70161,2.23318 14.30721,-1.27014 6.74865,-9.0738 0.12989,-52.70464 -11.96017,-78.84145 l -3.46927,-7.5 -3.37498,7 c -7.48731,15.5293 -18.34621,23.77583 -45.16631,34.30045 -32.01277,12.56232 -57.12224,21.48401 -58.72943,20.86728 -2.46706,-0.9467 -1.85192,-4.33752 1.17351,-6.46873 1.5125,-1.06546 9.95,-6.32405 18.75,-11.68575 49.12573,-29.93153 71.46669,-51.02626 82.99808,-78.36823 3.09015,-7.32704 6.59422,-20.18225 8.02005,-29.42281 0.32061,-2.07778 0.9395,-3.55741 1.37531,-3.28807 0.43581,0.26935 2.91136,4.13659 5.50122,8.59388 2.58986,4.45728 5.24805,7.92726 5.90709,7.71105 1.91406,-0.62792 1.97922,-6.37897 0.19329,-17.05961 -4.89358,-29.26569 -21.37687,-58.2335 -44.49504,-78.19579 -3.575,-3.08697 -6.5,-6.13206 -6.5,-6.76687 0,-4.09423 26.01681,-7.56939 32.30891,-4.31562 3.76672,1.94785 4.09437,1.00492 1.66836,-4.80133 -4.09334,-9.79675 -14.72105,-16.22824 -29.72727,-17.98984 -5.40053,-0.63397 -8.75,-1.47277 -8.75,-2.19123 0,-0.64023 1.9844,-2.99322 4.40979,-5.22886 6.62648,-6.10808 18.5623,-11.63651 28.05462,-12.99432 l 4.90784,-0.70204 -3.17885,-3.6205 c -4.35634,-4.9616 -11.80898,-7.96729 -21.38189,-8.62343 l -7.81928,-0.53595 8.32115,-8.22803 c 9.27732,-9.1735 14.0469,-15.82528 19.34143,-26.97406 12.55835,-26.44432 -5.12938,-50.95767 -32.87566,-45.56226 -8.20901,1.59629 -17.95188,6.2788 -21.27055,10.22282 -6.50228,7.72752 -14.37691,27.92193 -16.0219,41.088 -0.39443,3.15692 -0.96437,5.73985 -1.26652,5.73985 -0.30216,0 -4.86281,-2.8857 -10.13478,-6.41266 C 651.14838,390.8974 622.03229,379.02416 586,371.6281 c -28.92074,-5.93634 -53.90361,-8.17989 -81.5,-7.319 -63.73103,1.98814 -123.25849,19.24011 -161.77119,46.88378 -7.38566,5.30127 -7.20811,5.36717 -8.19573,-3.04185 -1.4027,-11.94319 -9.28708,-31.38444 -15.68145,-38.66723 -9.15161,-10.42311 -30.18342,-14.40327 -42.6711,-8.07528 -12.5725,6.37097 -18.89041,22.64049 -14.20949,36.59148 4.30082,12.81813 15.54096,29.13923 25.48143,37 2.43429,1.925 4.45333,3.8375 4.48676,4.25 0.0334,0.4125 -2.36683,0.75 -5.33389,0.75 -7.31408,0 -17.86238,3.40877 -22.12226,7.149 -4.33438,3.80564 -4.51123,5.851 -0.50591,5.851 3.56403,0 14.73964,4.08144 21.01233,7.6739 5.06838,2.90273 12.0105,9.16077 12.0105,10.82697 0,0.62481 -3.75712,1.57437 -8.75,2.21143 -17.10085,2.182 -27.88197,9.72158 -30.78839,21.5313 l -0.67521,2.7436 3.8568,-1.61352 c 5.47217,-2.28931 21.05576,-1.49396 27.6068,1.409 2.6125,1.15767 4.75,2.37379 4.75,2.70248 0,0.32869 -4.87985,5.41649 -10.84412,11.30623 -12.22371,12.07096 -18.34983,19.77158 -25.12535,31.58293 -9.63367,16.79377 -14.94272,33.60037 -15.79635,50.00567 -0.63487,12.20109 0.25339,12.33448 7.05668,1.05969 2.63497,-4.36682 5.15861,-8.06839 5.60808,-8.22571 0.44948,-0.15731 1.10275,2.14332 1.45172,5.11252 1.64349,13.98351 10.32123,35.85423 19.11644,48.17961 12.81165,17.95392 35.48102,36.00739 76.5329,60.94939 7.975,4.8454 15.03159,9.46886 15.68132,10.27436 1.67103,2.07167 0.52323,4.27015 -2.22939,4.27015 -3.83345,0 -61.03925,-21.53076 -73.45193,-27.64537 -14.44767,-7.11707 -22.85695,-14.92264 -28.10235,-26.08483 -1.86871,-3.9766 -3.67093,-7.2391 -4.00494,-7.25 -1.02953,-0.0336 -9.5954,21.0488 -11.77478,28.9802 -7.0257,25.56843 -8.6779,52.40879 -3.57333,58.04928 2.21775,2.45059 4.21304,2.4424 13.98728,-0.0574 4.91015,-1.25581 8.2046,-1.65537 8.79346,-1.06651 0.58885,0.58885 -1.87717,4.15716 -6.58225,9.52441 -9.8541,11.24091 -18.99659,24.278 -25.47245,36.3234 C 228.68691,796.15916 226.64535,801 227.84891,801 c 0.40968,0 3.828,-2.025 7.59625,-4.5 3.76826,-2.475 7.16588,-4.5 7.55027,-4.5 0.38439,0 0.98788,6.4125 1.3411,14.25 1.33036,29.51987 9.70146,54.59832 23.56172,70.58712 l 2.89286,3.33712 1.9553,-5.33712 c 1.07541,-2.93542 2.78631,-7.69962 3.80199,-10.58712 1.01568,-2.8875 2.32029,-5.24234 2.89914,-5.23298 0.57885,0.009 3.47363,2.88587 6.43283,6.39225 6.72383,7.96708 16.98204,16.72222 25.82169,22.03818 6.0322,3.62763 7.60757,5.2927 14.25386,15.06547 12.451,18.30805 26.83085,31.38759 37.43373,34.04874 3.28866,0.8254 3.39656,-0.81913 0.63685,-9.70632 -1.92716,-6.20611 -5.11562,-11.52242 -11.86053,-19.77571 -2.78353,-3.40602 -3.0312,-4.07802 -1.5,-4.06986 5.90139,0.0314 20.2998,9.86619 33.93224,23.17724 8.27347,8.07842 9.22527,8.73058 10.5,7.19442 0.8864,-1.06819 1.37612,-3.93668 1.33198,-7.8019 -0.0829,-7.25687 -3.36514,-15.2181 -9.61284,-23.31628 -2.2549,-2.92277 -3.82376,-5.59018 -3.48636,-5.92758 2.26372,-2.26371 26.11622,18.1156 32.66901,27.91204 1.375,2.05563 2.95,3.59527 3.5,3.42144 0.55,-0.17384 2.12338,-2.30801 3.49641,-4.74261 3.6486,-6.46956 3.56124,-17.16939 -0.20581,-25.20869 -4.11576,-8.7835 -8.95541,-14.03123 -16.68701,-18.09407 -3.7564,-1.97393 -7.44067,-4.32501 -8.18728,-5.22462 -1.17918,-1.42082 -0.98142,-1.93551 1.50569,-3.91867 l 2.86317,-2.28301 -2.21411,-3.5825 c -3.21901,-5.20846 -11.78465,-12.47697 -21.2779,-18.05569 C 367.05436,839.66096 358,833.128 358,831.55646 358,830.05245 360.14007,829 363.19836,829 c 1.69809,0 1.93583,-0.45505 1.43675,-2.75 -3.18431,-14.64244 -3.83617,-21.53727 -2.74343,-29.01739 1.42257,-9.73786 5.8032,-18.88521 12.24429,-25.56772 6.57727,-6.82381 7.4084,-5.84094 5.80857,6.86913 -2.18647,17.37083 0.1232,36.88866 5.63302,47.60165 0.74555,1.44961 3.7331,3.97866 6.639,5.6201 12.08059,6.82392 23.76449,18.7415 29.14302,29.7259 1.76516,3.60492 3.7511,6.04132 5.77922,7.0901 8.36179,4.32406 16.07098,14.6343 17.46615,23.35916 0.49009,3.06489 1.18877,4.21618 2.77503,4.5727 1.16601,0.26207 18.32002,0.86296 38.12002,1.3353 28.8122,0.68734 60.31045,0.42738 91.25,-0.75308 1.64098,-0.0626 2.25021,-0.69487 2.25079,-2.33585 0.002,-6.80008 9.72138,-19.96937 17.8333,-24.16421 2.11571,-1.09407 3.98754,-3.5168 6.05328,-7.83481 5.18593,-10.84016 15.94608,-21.80557 28.73884,-29.28706 5.88478,-3.44155 6.97091,-4.56412 9.12885,-9.43512 4.37573,-9.87709 5.51719,-17.93083 4.82293,-34.0288 -0.34394,-7.975 -0.88892,-16.1875 -1.21107,-18.25 -0.83621,-5.35364 1.82134,-4.99724 7.45665,1 7.39911,7.87432 12.17643,20.33331 12.17643,31.7555 0,4.22628 -2.44232,19.87765 -3.55379,22.77408 -0.42118,1.09759 0.2617,1.71699 2.41414,2.18975 1.6508,0.36257 3.50046,1.2605 4.11036,1.99538 1.47295,1.7748 -4.04572,6.18708 -18.10949,14.47887 -12.20484,7.19579 -19.48444,12.87861 -23.79286,18.57391 -3.6876,4.87463 -3.79258,6.25667 -0.56836,7.48251 4.13174,1.57088 2.89781,3.49892 -5.28045,8.25081 -13.07555,7.59742 -20.21016,17.903 -21.03311,30.38129 -0.3355,5.08711 0.0635,7.17466 2.34114,12.25 1.51005,3.36484 3.07289,6.1179 3.47298,6.1179 0.40009,0 1.98572,-1.8157 3.52362,-4.0349 6.3836,-9.21153 30.9651,-29.80915 33.06665,-27.7076 0.29441,0.29441 -1.30316,2.94441 -3.55016,5.88889 -8.41442,11.02631 -11.9685,22.81264 -9.11074,30.21385 l 1.10439,2.86024 10.27056,-9.89232 c 5.64881,-5.44078 13.54654,-12.07019 17.55052,-14.73203 6.81674,-4.53176 16.87385,-9.20021 17.80779,-8.26627 0.22865,0.22865 -1.86328,3.06047 -4.64874,6.29293 -2.78545,3.23247 -6.40206,8.57721 -8.03691,11.87721 -2.79077,5.63328 -5.2647,14.8795 -4.25211,15.89209 0.80331,0.80331 8.54098,-2.35455 13.38359,-5.46205 z M 486.51557,721.34051 c -3.84143,-0.82304 -10.42851,-2.82462 -14.63794,-4.44795 -7.7015,-2.97001 -35.42861,-18.88193 -40.49237,-23.2376 C 427.83075,690.59751 428.6844,688 433.2437,688 c 4.34972,0 26.00898,5.31704 31.82323,7.81214 4.14104,1.77707 6.20382,1.91069 22.11993,1.4328 9.65416,-0.28988 18.67957,-0.24429 20.05649,0.10129 2.32029,0.58236 3.10675,1.8057 5.24186,8.15377 0.5642,1.67748 0.89596,1.3571 2.05729,-1.98677 2.3175,-6.67285 2.7147,-6.77989 23.08541,-6.22141 16.52104,0.45294 18.51546,0.32243 22.5,-1.47237 5.438,-2.44949 27.55847,-7.81945 32.21067,-7.81945 4.83001,0 5.44676,2.39545 1.53632,5.96708 -4.07239,3.71956 -26.42493,17.0311 -36.12042,21.51069 -7.64388,3.53169 -21.89225,7.50212 -26.9693,7.51522 -1.67134,0.004 -3.11511,-0.74096 -3.75628,-1.93899 -0.96002,-1.79382 -2.07711,-1.93067 -14.28518,-1.75 -11.30372,0.16729 -13.43513,0.45235 -14.55042,1.946 -1.53732,2.05885 -2.45748,2.06598 -11.67773,0.0905 z m 15.31529,-67.29833 c -18.38263,-3.35929 -32.08271,-10.97064 -44.98494,-24.9923 -6.73855,-7.3232 -7.92952,-8.1811 -13.29878,-9.57962 -13.63408,-3.55122 -25.7433,-13.61976 -31.59966,-26.27436 -4.08176,-8.82002 -2.78094,-8.87089 -22.55347,0.88206 -18.38477,9.06844 -34.40408,19.07181 -47.23384,29.49552 -10.94155,8.8896 -11.47855,9.04716 -15.53988,4.55944 -3.03922,-3.3583 -1.34921,-6.40258 8.13869,-14.66047 16.48949,-14.35182 35.28769,-25.63179 66.24102,-39.74833 3.37772,-1.54044 3.40649,-1.59845 0.82351,-1.66017 -1.47207,-0.0352 -7.32207,0.84577 -13,1.95764 -26.8065,5.24936 -48.24301,13.21286 -72.27566,26.84988 -6.02368,3.41806 -11.82853,6.08277 -12.89967,5.92159 -2.90694,-0.43743 -6.00474,-5.09428 -5.15977,-7.75655 1.44149,-4.54173 28.89842,-20.00921 48.51159,-27.32833 11.92141,-4.44876 24.88431,-8.0718 36.5,-10.2015 13.46873,-2.46944 13.5,-2.47738 13.5,-3.42791 0,-0.48571 -1.41734,-1.37721 -3.14964,-1.98109 -5.78669,-2.01725 -38.83284,2.05848 -60.68556,7.48462 -5.68436,1.41146 -10.97861,2.31939 -11.76501,2.01762 -2.21651,-0.85056 -3.693,-5.66099 -2.52462,-8.22529 2.31814,-5.08778 24.79065,-10.7369 55.37483,-13.92009 5.2674,-0.54822 5.75,-0.80347 5.75,-3.04119 0,-1.68278 1.01112,-3.05924 3.25,-4.42431 6.03683,-3.68072 16.71687,-2.03809 24.59123,3.78224 2.643,1.95357 4.83721,2.54903 10.5,2.84947 C 429.5267,543.2142 430,543.42559 430,547.82792 c 0,5.33144 -1.67616,7.14648 -6.77832,7.33994 -2.35307,0.0892 -4.15307,0.42756 -4,0.75187 0.15308,0.3243 1.13518,2.74656 2.18245,5.3828 1.04727,2.63623 2.39727,4.60667 3,4.37875 0.60273,-0.22793 5.56859,-1.43081 11.03525,-2.67308 l 9.93939,-2.25866 1.81061,2.23601 c 2.2974,2.83716 2.32616,7.24082 0.0606,9.27834 -0.9625,0.86562 -5.71502,2.68788 -10.56116,4.04947 -4.84613,1.36159 -9.04623,2.7107 -9.33355,2.99802 -0.28732,0.28732 0.34552,2.4723 1.40631,4.85551 3.92466,8.81723 12.85667,14.65367 26.80307,17.5139 18.84385,3.86464 37.00204,-4.12874 45.03559,-19.82502 2.21316,-4.32415 2.80695,-6.99303 3.08274,-13.85577 0.18787,-4.675 0.48467,-11.9536 0.65956,-16.17466 l 0.31797,-7.67467 -4.06003,-1.82533 c -2.23301,-1.00394 -7.25861,-5.02207 -11.16799,-8.92919 -15.19345,-15.18467 -16.37877,-27.27009 -3.44358,-35.11041 7.62072,-4.6191 17.85917,-6.65475 30.37607,-6.0395 19.71277,0.96895 32.658,8.88645 32.62523,19.9541 -0.0276,9.32676 -12.18058,24.01084 -26.67289,32.22808 -0.10047,0.057 0.1548,7.07632 0.56726,15.59855 0.65941,13.62465 1.06351,16.17994 3.34783,21.16955 6.82424,14.9061 25.5587,23.96073 43.21437,20.88613 14.47413,-2.52056 24.16345,-8.51465 28.60927,-17.69848 2.64647,-5.46688 2.58178,-5.53536 -7.52931,-7.97036 -8.78332,-2.11524 -12.20091,-3.81178 -13.04668,-6.47656 -0.76242,-2.40219 1.09574,-7.5605 2.98461,-8.28533 1.09973,-0.422 11.01437,1.49422 19.62356,3.79269 2.37124,0.63308 2.74852,0.28747 4.5,-4.12212 1.05146,-2.64722 2.06175,-5.15273 2.24508,-5.56781 C 607.01667,555.33961 605.52458,555 603.51759,555 597.80852,555 596,553.55657 596,549 c 0,-5.00851 1.74996,-6 10.58987,-6 5.72437,0 7.23493,-0.39173 10.18378,-2.64093 4.83879,-3.69072 12.39274,-6.35974 17.98708,-6.35533 6.06698,0.005 11.23927,2.95939 11.23927,6.42029 0,2.73366 -1.25746,2.43882 19.5,4.57223 16.90635,1.7376 37.45863,5.96237 39.64597,8.14971 2.49297,2.49297 2.33415,5.18433 -0.5004,8.47969 l -2.35443,2.73718 -14.89557,-2.67704 c -29.29101,-5.2642 -54.89636,-7.19717 -57.28074,-4.32416 -0.92506,1.11463 0.45864,1.67193 7.62755,3.07207 30.22531,5.90323 51.58751,14.13499 71.59736,27.58951 C 721.00661,595.86796 726,600.20365 726,602.48908 726,604.19024 721.70748,609 720.18926,609 c -0.49591,0 -2.88732,-1.51617 -5.31425,-3.36926 -17.7912,-13.5846 -45.70349,-25.04719 -75.73886,-31.10329 -13.43991,-2.70992 -19.46619,-2.98752 -13.63615,-0.62816 24.51259,9.92003 50.15422,25.24203 67,40.03545 9.57722,8.41041 10.89135,10.95533 7.51363,14.55076 -1.29924,1.38297 -3.02122,2.5145 -3.82662,2.5145 -0.80541,0 -4.43947,-2.41008 -8.07569,-5.35574 -15.95627,-12.92596 -31.88731,-22.85137 -52.45489,-32.68063 -17.32678,-8.28048 -16.59039,-8.24258 -19.92713,-1.02561 -5.51204,11.92189 -17.24045,21.70992 -32.44381,27.0762 -6.8694,2.42467 -7.98016,3.21721 -12.69089,9.05515 -9.53603,11.81787 -22.75512,20.51641 -37.0946,24.40932 -7.01569,1.90464 -24.95567,2.79032 -31.66914,1.56349 z M 528.4871,636.0033 c 8.19312,-2.09545 14.12347,-4.97812 21.20422,-10.30712 4.88642,-3.67753 5.29167,-4.69618 1.86828,-4.69618 -4.32869,0 -16.87213,-5.10796 -23.8215,-9.70064 -3.71905,-2.45782 -8.60909,-6.65943 -10.86676,-9.3369 l -4.10487,-4.86812 -4.9124,5.37495 c -2.70182,2.95623 -7.39898,7.02545 -10.43812,9.04272 -5.71592,3.79401 -19.79542,9.45654 -23.69474,9.52962 -1.99782,0.0374 -1.84265,0.37618 1.54296,3.36823 13.08534,11.56421 34.82315,16.29931 53.22293,11.59344 z M 501.35566,516.3912 c 5.97653,-1.56487 14.65085,-1.49051 27.29657,0.23398 3.63723,0.49601 4.23756,0.29742 4.84014,-1.60113 1.77435,-5.59048 -8.59139,-9.56219 -22.93274,-8.78686 C 497.021,506.96912 490.19724,510.763 493,516 c 1.28481,2.40068 0.77261,2.3767 8.35566,0.3912 z M 388.80321,483.65989 c -14.82926,-4.17932 -22.27293,-17.471 -18.35304,-32.77183 3.87166,-15.11257 14.49181,-24.73428 30.94899,-28.03936 14.29298,-2.87044 28.54811,6.57267 32.95511,21.83062 1.92532,6.6659 3.07984,19.94018 2.2282,25.61931 l -0.66432,4.43001 -5.20908,0.54022 c -2.86499,0.29711 -9.78428,2.38617 -15.37621,4.64235 -11.55376,4.66159 -19.37103,5.76619 -26.52965,3.74868 z M 403.91963,458.25 c 1.17766,-0.9625 2.39862,-3.3588 2.71325,-5.32512 0.46003,-2.87502 0.0832,-4.14342 -1.92428,-6.47727 -3.31944,-3.85907 -9.91226,-4.14927 -12.81536,-0.5641 -2.56711,3.17026 -2.51136,9.49837 0.10676,12.11649 2.54292,2.54292 8.94974,2.67729 11.91963,0.25 z M 620.5,483.59965 c -2.75,-0.73661 -8.14279,-2.80009 -11.98397,-4.58552 -4.18438,-1.94494 -9.27891,-3.45431 -12.709,-3.76534 l -5.72502,-0.51913 -0.67702,-4.51465 c -0.88863,-5.92582 0.19104,-19.49213 2.04904,-25.74663 3.4913,-11.75256 11.28471,-19.17308 22.44195,-21.36813 12.04946,-2.37059 27.51948,3.988 34.98114,14.37818 9.50946,13.24168 9.29143,30.53896 -0.50064,39.71796 -6.54423,6.1345 -18.5685,8.89649 -27.87648,6.40326 z m 7.18555,-25.77396 c 2.84181,-2.66975 3.12727,-8.60961 0.56445,-11.74532 -0.9625,-1.17766 -3.41662,-2.408 -5.45361,-2.7341 -3.202,-0.5126 -4.1162,-0.1803 -6.75,2.45349 -3.85542,3.85542 -4.07737,8.26017 -0.59184,11.74569 3.21655,3.21656 8.96522,3.34827 12.231,0.28024 z M 296.21109,423.03795 c -5.36181,-3.88407 -11.39254,-11.97672 -15.3495,-20.59752 -2.58591,-5.63378 -3.20222,-8.28913 -3.27363,-14.10422 -0.0767,-6.24918 0.21807,-7.49027 2.30909,-9.72098 6.40976,-6.83797 18.4696,-5.23866 26.74771,3.54714 8.66794,9.19954 13.8449,28.7888 9.83908,37.23044 -3.36627,7.09388 -13.09668,8.84346 -20.27275,3.64514 z m 418.17703,1.98198 c -3.32252,-1.34245 -6.22712,-5.76351 -6.94893,-10.57689 -1.30014,-8.66995 4.47634,-25.78985 11.03127,-32.69365 8.28988,-8.73109 23.0775,-9.94751 28.08179,-2.30998 2.6397,4.02868 1.56607,15.26843 -2.25051,23.56059 -7.64423,16.60837 -20.28226,25.91144 -29.91362,22.01993 z M 371.5,372.03883 c 26.1648,-12.67823 62.75123,-22.53002 101,-27.19673 17.16033,-2.09372 71.68275,-1.78033 86.95853,0.49983 44.96084,6.71113 82.6012,18.79272 109.54817,35.16214 3.16521,1.92276 6.2068,3.49593 6.7591,3.49593 0.5523,0 1.74849,-1.13597 2.65821,-2.52437 1.28084,-1.9548 2.22593,-9.56964 4.18879,-33.75 2.07439,-25.55433 2.85792,-31.6785 4.31402,-33.71909 l 1.77925,-2.49345 -10.60303,-3.30275 C 559.62425,271.30531 503.73042,267.66997 413.63457,291.00927 c -27.40205,7.0985 -74.96467,19.98749 -75.41348,20.4363 -0.20949,0.2095 0.30861,1.43322 1.15134,2.71939 1.13476,1.73187 2.06343,9.62378 3.57991,30.42255 1.12621,15.44623 2.04934,29.17045 2.0514,30.49827 0.002,1.32782 0.91388,3.90704 2.02627,5.73159 l 2.02254,3.31738 5.22372,-3.14064 C 357.14932,379.26675 364.9,375.23688 371.5,372.03883 Z m 336.10834,-82.38151 c 10.33862,-3.13595 12.60044,-4.33774 21.54661,-11.44853 C 743.92,266.47292 751.94784,255.38017 755.83959,241.33631 760.12266,225.88032 759.59459,214.68266 753.7959,198 747.41077,179.63019 739.62194,170.58829 718,156.4453 670.076,125.09804 612.03244,103.69628 558,97.450281 c -17.91219,-2.0706 -56.91987,-1.5505 -75.5,1.006663 -60.86811,8.377216 -126.00907,33.009426 -169.61967,64.139476 -12.69475,9.06175 -25.81555,22.53239 -30.101,30.90358 C 276.45744,205.84919 273,217.20571 273,225.62184 c 0,13.28017 4.27722,28.73166 10.01538,36.18065 4.63467,6.01648 15.85671,16.57567 21.97735,20.67921 3.97066,2.66211 9.97432,5.44273 15.40144,7.13326 l 8.89418,2.7705 13.35582,-3.4224 c 7.34571,-1.88232 13.33421,-3.65655 13.30778,-3.94273 -0.0264,-0.28618 -2.51094,-2.08027 -5.52114,-3.98686 -7.656,-4.84913 -18.01422,-15.04394 -25.28337,-24.8845 -8.44369,-11.43059 -16.34753,-27.51662 -16.9216,-34.43916 -0.41922,-5.05532 -0.26299,-5.50077 2.84731,-8.11791 2.57078,-2.16317 3.94136,-2.639 6.26356,-2.17456 4.44826,0.88965 5.38145,2.03586 11.21461,13.77454 2.9488,5.93417 7.24725,13.60611 9.55213,17.04876 10.46515,15.63114 35.68739,35.44009 43.89655,34.47532 1.925,-0.22623 10.651,-2.31873 19.39112,-4.64999 8.74012,-2.33127 23.07647,-5.69104 31.85857,-7.46617 15.37245,-3.10724 15.87753,-3.28642 13.55445,-4.80856 -8.72659,-5.71789 -22.49646,-21.56812 -31.09357,-35.79124 -8.62147,-14.26341 -14.9821,-33.23156 -17.85452,-53.2443 -1.19261,-8.3092 -1.15298,-8.88142 0.79659,-11.5 3.8593,-5.18365 10.79281,-5.55788 13.94143,-0.75248 0.89065,1.35931 2.73002,7.76466 4.08749,14.23412 4.29421,20.46541 9.39877,33.01748 19.62704,48.26266 9.74927,14.53125 26.93944,30.09933 37.46627,33.93091 4.17816,1.52078 8.10185,1.66951 33.89591,1.28485 l 29.17078,-0.43501 10.07178,-20.14037 C 552.45281,224.56317 558.31566,211.45 559.94189,206.5 c 3.57278,-10.87501 7.29671,-30.7223 9.56486,-50.97749 0.92245,-8.23762 2.30296,-16.18764 3.06782,-17.66671 2.0091,-3.88517 7.35306,-5.46171 11.40716,-3.36525 5.07582,2.62481 5.43381,4.99408 3.55225,23.50945 -3.64747,35.89263 -8.21779,52.98456 -21.99443,82.25392 -7.91238,16.81037 -8.24178,17.77792 -6.19802,18.20556 1.18716,0.2484 6.88347,1.18902 12.65847,2.09025 14.17884,2.21271 31.87824,5.9358 47.10421,9.90843 l 12.60422,3.28858 7.36605,-5.57334 c 10.58902,-8.01192 22.36971,-19.51722 28.82992,-28.15599 3.16719,-4.23524 10.1609,-16.59195 16.11505,-28.47257 7.55543,-15.07572 11.23791,-21.39324 13.06929,-22.42117 5.16848,-2.901 11.91126,1.42073 11.91126,7.63441 0,4.10414 -4.30985,14.69938 -12.50496,30.74192 -11.51352,22.53858 -20.22578,34.18436 -34.41684,46.00536 -3.89301,3.24284 -7.0782,6.18197 -7.0782,6.5314 0,0.34944 2.5875,1.38517 5.75,2.30162 3.1625,0.91646 12.5,3.68243 20.75,6.14662 8.25,2.46418 15.675,4.28941 16.5,4.05605 0.825,-0.23335 5.14875,-1.53103 9.60834,-2.88373 z"
       id="path1"
       inkscape:label="murmli" />
    <path
       style="display:inline;fill:none;stroke-width:3.3"
       d="M 75.752671,0.16495663 948.94775,1.1859668 a 75.082564,75.082564 45.035475 0 1 74.99475,75.0876962 l -0.06,872.751237 a 75.000005,75.000005 135.00395 0 1 -75.0052,74.9948 l -873.79984,-0.06 A 74.955707,74.955707 45.020875 0 1 0.12673886,948.95432 L 0.70324414,75.077244 A 74.961792,74.961792 135.0524 0 1 75.752671,0.16495663 Z"
       id="path3"
       sodipodi:nodetypes="ccccc"
       inkscape:path-effect="#path-effect3"
       inkscape:original-d="M 0.75272236,0.07726064 1023.9477,1.2736628 1023.8771,1024.0249 0.07726064,1023.9543 Z"
       inkscape:label="background" />
    <rect
       style="display:inline;fill:#ffffff;fill-opacity:0;stroke:#ffffff;stroke-width:100;stroke-linecap:square;stroke-linejoin:miter;stroke-dasharray:none;stroke-opacity:1;paint-order:normal"
       id="rect18"
       width="1050.7106"
       height="1050.7106"
       x="-13.67372"
       y="-13.67372"
       rx="134.82693"
       ry="134.82693"
       inkscape:label="rahmen" />
  </g>
</svg>
