<?xml version="1.0" encoding="UTF-8" standalone="no"?>
<svg
   id="artwork"
   version="1.1"
   viewBox="0 0 155 46"
   sodipodi:docname="play_store.svg"
   width="155"
   height="46"
   xmlns:inkscape="http://www.inkscape.org/namespaces/inkscape"
   xmlns:sodipodi="http://sodipodi.sourceforge.net/DTD/sodipodi-0.dtd"
   xmlns="http://www.w3.org/2000/svg"
   xmlns:svg="http://www.w3.org/2000/svg">
  <sodipodi:namedview
     id="namedview14"
     pagecolor="#ffffff"
     bordercolor="#000000"
     borderopacity="0.25"
     inkscape:showpageshadow="2"
     inkscape:pageopacity="0.0"
     inkscape:pagecheckerboard="0"
     inkscape:deskcolor="#d1d1d1" />
  <!-- Generator: Adobe Illustrator 29.5.1, SVG Export Plug-In . SVG Version: 2.1.0 Build 141)  -->
  <defs
     id="defs1">
    <style
       id="style1">&#10;      .st0 {&#10;        fill: #4285f4;&#10;      }&#10;&#10;      .st1 {&#10;        fill: #a6a6a6;&#10;      }&#10;&#10;      .st2 {&#10;        stroke: #fff;&#10;        stroke-miterlimit: 10;&#10;        stroke-width: .2px;&#10;      }&#10;&#10;      .st2, .st3, .st4 {&#10;        fill: #fff;&#10;      }&#10;&#10;      .st5 {&#10;        fill: #34a853;&#10;      }&#10;&#10;      .st6 {&#10;        fill: #fbbc04;&#10;      }&#10;&#10;      .st4 {&#10;        fill-opacity: 0;&#10;      }&#10;&#10;      .st7 {&#10;        fill: #ea4335;&#10;      }&#10;    </style>
  </defs>
  <rect
     class="st4"
     width="155"
     height="60"
     id="rect1"
     x="0"
     y="0" />
  <rect
     x="0.057914454"
     y="0.018146116"
     width="154.92393"
     height="45.903389"
     rx="5.7379236"
     ry="5.7379236"
     id="rect2"
     style="stroke-width:1.14758" />
  <path
     class="st1"
     d="m 149.24393,0.93621364 c 2.6578,0 4.81985,2.16205016 4.81985,4.81985606 V 40.183612 c 0,2.657806 -2.16205,4.819856 -4.81985,4.819856 H 5.7958381 c -2.6578059,0 -4.81985608,-2.16205 -4.81985608,-4.819856 V 5.7560697 c 0,-2.6578059 2.16205018,-4.81985606 4.81985608,-4.81985606 H 149.24393 m 0,-0.91806752 H 5.7958381 c -3.155858,0 -5.73792364,2.58206558 -5.73792364,5.73792358 V 40.183612 c 0,3.155858 2.58206564,5.737923 5.73792364,5.737923 H 149.24393 c 3.15585,0 5.73792,-2.582065 5.73792,-5.737923 V 5.7560697 c 0,-3.155858 -2.58207,-5.73792358 -5.73792,-5.73792358 z"
     id="path2"
     style="stroke-width:1.14758" />
  <g
     id="g9"
     transform="matrix(1.1475847,0,0,1.1475847,-11.417932,-11.457701)">
    <path
       class="st2"
       d="m 57.418,20.243 c 0,0.838 -0.248,1.505 -0.745,2.003 -0.564,0.592 -1.3,0.888 -2.204,0.888 -0.866,0 -1.602,-0.3 -2.208,-0.9 -0.606,-0.601 -0.909,-1.345 -0.909,-2.233 0,-0.888 0.303,-1.633 0.909,-2.233 0.605,-0.601 1.342,-0.901 2.208,-0.901 0.43,0 0.841,0.084 1.232,0.251 0.391,0.168 0.704,0.391 0.938,0.67 l -0.527,0.528 c -0.397,-0.475 -0.944,-0.712 -1.643,-0.712 -0.632,0 -1.178,0.222 -1.639,0.666 -0.461,0.444 -0.691,1.021 -0.691,1.73 0,0.709 0.23,1.286 0.691,1.73 0.461,0.444 1.007,0.666 1.639,0.666 0.67,0 1.229,-0.223 1.676,-0.67 0.29,-0.291 0.458,-0.696 0.503,-1.215 H 54.469 V 19.79 h 2.907 c 0.028,0.157 0.042,0.307 0.042,0.453 z"
       id="path3" />
    <path
       class="st2"
       d="m 62.028,17.737 h -2.732 v 1.902 h 2.464 v 0.721 h -2.464 v 1.902 h 2.732 v 0.737 h -3.503 v -6 h 3.503 v 0.737 z"
       id="path4" />
    <path
       class="st2"
       d="M 65.279,23 H 64.508 V 17.737 H 62.832 V 17 h 4.123 v 0.737 h -1.676 z"
       id="path5" />
    <path
       class="st2"
       d="m 69.938,23 v -6 h 0.77 v 6 z"
       id="path6" />
    <path
       class="st2"
       d="M 74.128,23 H 73.357 V 17.737 H 71.681 V 17 h 4.123 v 0.737 h -1.676 z"
       id="path7" />
    <path
       class="st2"
       d="m 83.609,22.225 c -0.59,0.607 -1.323,0.909 -2.2,0.909 -0.877,0 -1.61,-0.303 -2.199,-0.909 -0.59,-0.606 -0.884,-1.348 -0.884,-2.225 0,-0.877 0.294,-1.619 0.884,-2.225 0.589,-0.607 1.322,-0.91 2.199,-0.91 0.872,0 1.603,0.305 2.196,0.914 0.592,0.609 0.888,1.349 0.888,2.221 0,0.877 -0.295,1.619 -0.884,2.225 z m -3.83,-0.503 c 0.444,0.45 0.987,0.674 1.63,0.674 0.643,0 1.186,-0.225 1.63,-0.674 0.444,-0.45 0.667,-1.024 0.667,-1.722 0,-0.698 -0.223,-1.273 -0.667,-1.722 -0.443,-0.45 -0.987,-0.674 -1.63,-0.674 -0.643,0 -1.186,0.225 -1.63,0.674 -0.443,0.45 -0.666,1.024 -0.666,1.722 0,0.698 0.223,1.273 0.666,1.722 z"
       id="path8" />
    <path
       class="st2"
       d="m 85.575,23 v -6 h 0.939 l 2.916,4.667 h 0.033 L 89.43,20.511 V 17 h 0.771 v 6 h -0.805 l -3.051,-4.894 h -0.033 l 0.033,1.156 v 3.737 h -0.771 z"
       id="path9" />
  </g>
  <path
     class="st3"
     d="m 78.249749,24.980409 c -2.69912,0 -4.89904,2.051881 -4.89904,4.880679 0,2.810434 2.19992,4.880676 4.89904,4.880676 2.699118,0 4.899038,-2.070242 4.899038,-4.880676 0,-2.828798 -2.19992,-4.880679 -4.899038,-4.880679 z m 0,7.838004 c -1.479238,0 -2.754204,-1.219882 -2.754204,-2.958474 0,-1.756952 1.276114,-2.958472 2.754204,-2.958472 1.478089,0 2.754203,1.20152 2.754203,2.958472 0,1.737444 -1.276114,2.958474 -2.754203,2.958474 z M 67.562292,24.980409 c -2.69912,0 -4.899039,2.051881 -4.899039,4.880679 0,2.810434 2.199919,4.880676 4.899039,4.880676 2.699119,0 4.899039,-2.070242 4.899039,-4.880676 0,-2.828798 -2.19992,-4.880679 -4.899039,-4.880679 z m 0,7.838004 c -1.479238,0 -2.75535,-1.219882 -2.75535,-2.958474 0,-1.756952 1.276112,-2.958472 2.75535,-2.958472 1.479237,0 2.754203,1.20152 2.754203,2.958472 0,1.737444 -1.276113,2.958474 -2.754203,2.958474 z M 54.8482,26.478007 v 2.070244 h 4.955271 c -0.148039,1.164798 -0.535922,2.015159 -1.128075,2.607312 -0.720684,0.720682 -1.848759,1.515959 -3.827196,1.515959 -3.05028,0 -5.434962,-2.459273 -5.434962,-5.509554 0,-3.05028 2.384682,-5.509555 5.434962,-5.509555 1.645637,0 2.847158,0.647239 3.734241,1.479237 l 1.460875,-1.460875 c -1.238244,-1.183161 -2.883879,-2.088604 -5.195116,-2.088604 -4.178355,0 -7.691112,3.401441 -7.691112,7.579797 0,4.178355 3.512757,7.579796 7.691112,7.579796 2.256152,0 3.956872,-0.739044 5.288071,-2.126474 1.367921,-1.367921 1.793674,-3.291272 1.793674,-4.843955 0,-0.480838 -0.03672,-0.923805 -0.111315,-1.294476 H 54.8482 Z m 51.99477,1.607767 c -0.40625,-1.090206 -1.64564,-3.106513 -4.17835,-3.106513 -2.51437,0 -4.602968,1.978436 -4.602968,4.880678 0,2.735843 2.070238,4.880678 4.843948,4.880678 2.23664,0 3.53112,-1.367921 4.06703,-2.163197 l -1.66398,-1.109715 c -0.55428,0.813638 -1.31284,1.34956 -2.40305,1.34956 -1.0902,0 -1.86712,-0.4992 -2.36632,-1.479236 l 6.52631,-2.699119 -0.22148,-0.554284 z m -6.656,1.627275 c -0.0551,-1.885482 1.46088,-2.847158 2.55108,-2.847158 0.85037,0 1.57105,0.424606 1.81204,1.03512 z m -5.30528,4.732639 h 2.144841 V 20.098584 H 94.88169 Z m -3.513901,-8.375073 h -0.07345 c -0.480838,-0.572644 -1.404644,-1.091354 -2.569442,-1.091354 -2.440913,0 -4.677555,2.144837 -4.677555,4.899039 0,2.735843 2.236642,4.862317 4.677555,4.862317 1.164798,0 2.088604,-0.517561 2.569442,-1.109715 h 0.07345 v 0.702323 c 0,1.867121 -0.998398,2.865519 -2.607311,2.865519 -1.312837,0 -2.126475,-0.943315 -2.459275,-1.737443 l -1.86712,0.776915 c 0.535922,1.294475 1.960074,2.88388 4.326395,2.88388 2.514357,0 4.640832,-1.479237 4.640832,-5.0838 v -8.762958 h -2.033521 z m -2.458126,6.747798 c -1.479237,0 -2.717481,-1.238244 -2.717481,-2.940113 0,-1.719081 1.238244,-2.976833 2.717481,-2.976833 1.460876,0 2.607312,1.257752 2.607312,2.976833 0,1.700721 -1.146436,2.940113 -2.607312,2.940113 z M 116.88892,20.099731 h -5.13086 v 14.345957 h 2.1414 v -5.434961 h 2.98946 c 2.37321,0 4.70625,-1.717935 4.70625,-4.456072 0,-2.738137 -2.33304,-4.454924 -4.70625,-4.454924 z m 0.0551,6.914198 h -3.04569 v -4.9174 h 3.04569 c 1.60088,0 2.50976,1.32546 2.50976,2.459274 0,1.112009 -0.90888,2.459274 -2.50976,2.459274 z m 13.23395,-2.059914 c -1.5504,0 -3.15587,0.682812 -3.82032,2.196477 l 1.90155,0.794129 c 0.40624,-0.794129 1.16251,-1.052336 1.95664,-1.052336 1.10742,0 2.23319,0.664452 2.25156,1.845316 v 0.148038 c -0.38788,-0.221483 -1.21759,-0.554282 -2.2332,-0.554282 -2.04845,0 -4.13476,1.12578 -4.13476,3.230451 0,1.919909 1.67893,3.155858 3.56212,3.155858 1.43906,0 2.23319,-0.646091 2.73124,-1.402349 h 0.0734 v 1.10742 h 2.0668 v -5.500373 c 0,-2.547639 -1.90155,-3.968349 -4.35624,-3.968349 z m -0.25821,7.862102 c -0.70118,0 -1.68007,-0.350013 -1.68007,-1.217586 0,-1.10742 1.2176,-1.532027 2.26993,-1.532027 0.94101,0 1.38398,0.203123 1.95663,0.479691 -0.1664,1.328904 -1.31055,2.269922 -2.54649,2.269922 z m 12.14374,-7.548812 -2.45469,6.21991 h -0.0734 l -2.54649,-6.21991 h -2.30665 l 3.82032,8.692955 -2.17813,4.835922 h 2.23321 l 5.88825,-13.528877 h -2.38124 z m -19.28746,9.178383 h 2.14139 V 20.099731 h -2.14139 z"
     id="path10"
     style="stroke-width:1.14758" />
  <g
     id="g14"
     transform="matrix(1.1475847,0,0,1.1475847,-11.417932,-11.457701)">
    <path
       class="st7"
       d="m 30.717,29.424 -10.647,11.3 c 0,0 0.001,0.005 0.002,0.007 0.327,1.227 1.447,2.13 2.777,2.13 0.531,0 1.031,-0.144 1.459,-0.396 l 0.034,-0.02 11.984,-6.915 z"
       id="path11" />
    <path
       class="st6"
       d="m 41.488,27.5 -0.01,-0.007 -5.174,-3 -5.829,5.187 5.849,5.848 5.146,-2.969 c 0.902,-0.487 1.515,-1.438 1.515,-2.535 0,-1.09 -0.604,-2.036 -1.498,-2.525 z"
       id="path12" />
    <path
       class="st0"
       d="m 20.07,19.277 c -0.064,0.236 -0.098,0.484 -0.098,0.74 v 19.968 c 0,0.256 0.033,0.504 0.098,0.739 L 31.083,29.713 Z"
       id="path13" />
    <path
       class="st5"
       d="m 30.796,30.001 5.51,-5.509 -11.97,-6.94 c -0.435,-0.261 -0.943,-0.411 -1.486,-0.411 -1.33,0 -2.452,0.905 -2.779,2.134 0,0 0,0.002 0,0.003 l 10.726,10.724 z"
       id="path14" />
  </g>
</svg>
